<svg width="7518" height="1934" viewBox="0 0 7518 1934" fill="none" xmlns="http://www.w3.org/2000/svg">
<path fill-rule="evenodd" clip-rule="evenodd" d="M2558.5 439.5H2183.5L1959 888L2184.5 1336.5L2283 1133.5L2211 992.5H2734.5L2782 888.5L2734.5 784L2211 783L2283 644.5H2460.5L2558.5 439.5ZM3917 443.5H3542L3641 645H3819L3893.5 785.5L3374.5 786L3319 891L3542 1338.5H3917L4142 891L3917 443.5ZM3641 1131L3572 994H3577.5H3893.5L3819 1131H3641ZM7294.52 1334.88H6919.52L6694.52 887.382L6919.52 439.882H7294.52L7517.52 887.382L7462.02 992.382L6943.02 992.882L7017.52 1133.38H7195.52L7294.52 1334.88ZM7264.52 784.382L7195.52 647.382H7017.52L6943.02 784.382H7259.02H7264.52ZM1863 993.5L1506 992.504L1501.5 998.5L1605.5 1058.5L1407.5 1116L1345.5 992.5H1504.5L1572.5 921.5L1132.5 818.5L1143 794.5L1596.5 897.5L1609 880L1482.5 783.5H1663.5L1590.5 645H1416L1384 706.5L1364 689.5L1165.5 746.5L1174.5 730.5L1339.5 680L1211.5 653L1229 626L1370 660L1618.5 441H1692L1918 888L1863 993.5ZM1407.5 1116L1416.5 1131.5L1589.5 1133.5L1690.5 1342H1364L1521.5 1195L1372.5 1148C1372.5 1148 1242.63 1180.97 1242.5 1181L1230 1159L1407.5 1116ZM4687 645.5L4784.5 442.5H4409L4188 889.5L4409 1336.5H4784.5L4687 1135.5H4508.5L4384 890L4508.5 645.5H4687ZM1386 706L1344 785L1487.5 783L1386 706ZM4811 440.5H5460L5372 645.5H5226L5227 1337.5H5048V645.5H4903L4811 440.5ZM3325 645.5L3421.5 443H3052L2824.5 891.5L3052 1340L3146.5 1136L3021.5 890L3146.5 645.5H3325ZM6795 444L6698.5 646.5H6520L6395 891L6520 1137L6425.5 1341L6198 892.5L6425.5 444H6795ZM5659 648L5560.5 443L5335.5 893L5560.5 1340H5935L6158 893L5933.5 443L5835.5 647L5959.5 891.5L5835.5 1136H5659L5534 893L5659 648Z" fill="url(#paint0_linear)"/>
<path fill-rule="evenodd" clip-rule="evenodd" d="M1096 440.5L1118.5 510.5L1468 290L1459.5 282L1622 142.5L1322 191L1035 67.5L1004.5 139.5L1044.5 273.5H1178L1096 440.5Z" fill="url(#paint1_linear)"/>
<path fill-rule="evenodd" clip-rule="evenodd" d="M749 33.5L771 272.5L922 274L979 129L962.5 80L818 147L749 33.5Z" fill="url(#paint2_linear)"/>
<path fill-rule="evenodd" clip-rule="evenodd" d="M487 1453L619.5 1510.5L808.5 1421L878 1533L882.5 1528.5L840 1122L723.5 1361.5L602.5 1118.5L515.5 1328.5L487 1453Z" fill="url(#paint3_linear)"/>
<path fill-rule="evenodd" clip-rule="evenodd" d="M485 929L501.5 920L510.5 934L485 929Z" fill="url(#paint4_linear)"/>
<path fill-rule="evenodd" clip-rule="evenodd" d="M1044 798L1039.5 1014.5L1156 1176.5L1230 1159L1097 891L1132.5 818.5L1044 798Z" fill="url(#paint5_linear)"/>
<path fill-rule="evenodd" clip-rule="evenodd" d="M13.5 683L272 881.5V890L458 926L495.5 905L453 818L524.5 676.5L112.5 578.5L13.5 683Z" fill="url(#paint6_linear)"/>
<path fill-rule="evenodd" clip-rule="evenodd" d="M844.5 524H1056L1079.5 474.5L1095.5 524L814 703L804.5 623.5L844.5 524Z" fill="url(#paint7_linear)"/>
<path fill-rule="evenodd" clip-rule="evenodd" d="M525 1284.5L596 1104.5L577 1069L525 1284.5Z" fill="url(#paint8_linear)"/>
<path fill-rule="evenodd" clip-rule="evenodd" d="M465 639.5L550 511L234.5 254L98.5 371.5L282.5 426L22 504V505.5L106 556.5L465 639.5Z" fill="url(#paint9_linear)"/>
<path fill-rule="evenodd" clip-rule="evenodd" d="M131 1015L407 939.5L247.5 909L131 1015Z" fill="url(#paint10_linear)"/>
<path fill-rule="evenodd" clip-rule="evenodd" d="M762 676H760.5L746 704.5L751 705L760 681.5L762.5 676.389L762 676Z" fill="url(#paint11_linear)"/>
<path fill-rule="evenodd" clip-rule="evenodd" d="M793 715L791 687L782.5 675L767.5 709L793 715Z" fill="url(#paint12_linear)"/>
<path fill-rule="evenodd" clip-rule="evenodd" d="M0 1136L54.5 1183L432 944.5L416.5 942.5L128 1019L0 1136Z" fill="url(#paint13_linear)"/>
<path fill-rule="evenodd" clip-rule="evenodd" d="M1096 532L1127.5 632L1211.5 653L1174.5 730L1028 770L828 724L819.5 712L1096 532Z" fill="url(#paint14_linear)"/>
<path fill-rule="evenodd" clip-rule="evenodd" d="M398 115.06H399.314L459.5 200L534 0.5L398 115.06Z" fill="url(#paint15_linear)"/>
<path fill-rule="evenodd" clip-rule="evenodd" d="M636.5 449L724 274.321H751L729.5 58.5L471.5 216.5L636.5 449Z" fill="url(#paint16_linear)"/>
<path fill-rule="evenodd" clip-rule="evenodd" d="M245.5 243.5L578.5 512L489.5 639.5L534.5 656.5L629 460.5L459.5 225L447.5 230.5L453 216.5L386.5 124.5L245.5 243.5Z" fill="url(#paint17_linear)"/>
<path fill-rule="evenodd" clip-rule="evenodd" d="M800 741.5C800.006 741.548 810 830 810 830L708.5 856.5L747.5 759L782 736.5L800 741.5Z" fill="url(#paint18_linear)"/>
<path fill-rule="evenodd" clip-rule="evenodd" d="M715.5 765.5L736 726L737.299 726.325C737.299 726.325 743.116 727.154 744.5 727.5C745.884 727.846 733 757 733 757L719.5 765.5H715.5Z" fill="url(#paint19_linear)"/>
<path fill-rule="evenodd" clip-rule="evenodd" d="M8 1424L172 1286L71 1197.5L455 948L522.5 961.5L562.5 1037L462 1443L308.5 1376L8 1424Z" fill="url(#paint20_linear)"/>
<path fill-rule="evenodd" clip-rule="evenodd" d="M1618.5 441H1320L1229 626L1148.5 608.5L1121 518L1470 293L1631 429.5L1618.5 441Z" fill="url(#paint21_linear)"/>
<path fill-rule="evenodd" clip-rule="evenodd" d="M826.5 834.5L887 819.5L1011 991V1210L1020 1234.5L1165 1200.5L1302 1390.5L1094 1566.5L1176.5 1339.5L897.5 1511.5L826.5 834.5Z" fill="url(#paint22_linear)"/>
<path fill-rule="evenodd" clip-rule="evenodd" d="M888 807.5L849.5 753L975.5 783L888 807.5Z" fill="url(#paint23_linear)"/>
<path fill-rule="evenodd" clip-rule="evenodd" d="M807.5 841.5L836 1106L712 866L807.5 841.5Z" fill="url(#paint24_linear)"/>
<path fill-rule="evenodd" clip-rule="evenodd" d="M1031 1203L1035 1024L1147 1178L1031.5 1203H1031Z" fill="url(#paint25_linear)"/>
<path fill-rule="evenodd" clip-rule="evenodd" d="M880 810L835.5 749.5L816.5 745L825.5 825L880 810Z" fill="url(#paint26_linear)"/>
<path fill-rule="evenodd" clip-rule="evenodd" d="M1054.5 775.5L1166 746L1143 794.5L1054.5 775.5Z" fill="url(#paint27_linear)"/>
<path fill-rule="evenodd" clip-rule="evenodd" d="M895.5 817.5L1009.5 978.5L1011.5 791L998.5 789L895.5 817.5Z" fill="url(#paint28_linear)"/>
<path fill-rule="evenodd" clip-rule="evenodd" d="M1172 1201L1307.79 1391L1364 1342.1L1321.5 1343L1242.5 1183L1172 1201Z" fill="url(#paint29_linear)"/>
<path fill-rule="evenodd" clip-rule="evenodd" d="M757 745L760 736L769 737L757 745Z" fill="url(#paint30_linear)"/>
<path fill-rule="evenodd" clip-rule="evenodd" d="M692.5 818.5L710 784L725.5 774.5L701.5 838L692.5 818.5Z" fill="url(#paint31_linear)"/>
<path fill-rule="evenodd" clip-rule="evenodd" d="M981.5 68.5L1005.5 57.5L989.5 97L981.5 68.5Z" fill="url(#paint32_linear)"/>
<path d="M2142.21 1491.53L2244.75 1763.99L2347.04 1491.53H2426.88V1847H2365.36V1729.81L2371.46 1573.07L2266.48 1847H2222.29L2117.55 1573.32L2123.66 1729.81V1847H2062.13V1491.53H2142.21ZM2729.42 1821.12C2712 1841.63 2687.26 1851.88 2655.2 1851.88C2626.55 1851.88 2604.82 1843.5 2590.01 1826.74C2575.37 1809.97 2568.04 1785.72 2568.04 1753.98V1582.84H2627.37V1753.25C2627.37 1786.78 2641.28 1803.54 2669.12 1803.54C2697.92 1803.54 2717.37 1793.21 2727.46 1772.54V1582.84H2786.79V1847H2730.88L2729.42 1821.12ZM3070.29 1775.22C3070.29 1764.64 3065.89 1756.59 3057.1 1751.05C3048.48 1745.52 3034.07 1740.64 3013.89 1736.4C2993.71 1732.17 2976.86 1726.8 2963.35 1720.29C2933.73 1705.97 2918.92 1685.22 2918.92 1658.04C2918.92 1635.25 2928.52 1616.21 2947.73 1600.91C2966.93 1585.61 2991.35 1577.96 3020.97 1577.96C3052.55 1577.96 3078.02 1585.77 3097.39 1601.39C3116.92 1617.02 3126.68 1637.28 3126.68 1662.19H3067.36C3067.36 1650.79 3063.13 1641.35 3054.66 1633.87C3046.2 1626.22 3034.97 1622.39 3020.97 1622.39C3007.95 1622.39 2997.29 1625.4 2988.99 1631.42C2980.85 1637.45 2976.78 1645.5 2976.78 1655.59C2976.78 1664.71 2980.61 1671.79 2988.26 1676.83C2995.91 1681.88 3011.37 1687.01 3034.64 1692.21C3057.92 1697.26 3076.15 1703.36 3089.33 1710.53C3102.68 1717.52 3112.52 1725.99 3118.87 1735.92C3125.38 1745.84 3128.64 1757.89 3128.64 1772.05C3128.64 1795.81 3118.79 1815.1 3099.1 1829.91C3079.4 1844.56 3053.6 1851.88 3021.7 1851.88C3000.06 1851.88 2980.77 1847.98 2963.84 1840.16C2946.91 1832.35 2933.73 1821.61 2924.29 1807.94C2914.85 1794.27 2910.13 1779.54 2910.13 1763.75H2967.75C2968.56 1777.75 2973.85 1788.57 2983.62 1796.22C2993.38 1803.71 3006.32 1807.45 3022.44 1807.45C3038.06 1807.45 3049.94 1804.52 3058.08 1798.66C3066.22 1792.64 3070.29 1784.83 3070.29 1775.22ZM3318.63 1847H3259.3V1582.84H3318.63V1847ZM3255.64 1514.24C3255.64 1505.12 3258.49 1497.55 3264.18 1491.53C3270.04 1485.51 3278.34 1482.5 3289.09 1482.5C3299.83 1482.5 3308.13 1485.51 3313.99 1491.53C3319.85 1497.55 3322.78 1505.12 3322.78 1514.24C3322.78 1523.19 3319.85 1530.68 3313.99 1536.7C3308.13 1542.56 3299.83 1545.49 3289.09 1545.49C3278.34 1545.49 3270.04 1542.56 3264.18 1536.7C3258.49 1530.68 3255.64 1523.19 3255.64 1514.24ZM3566.97 1804.52C3581.78 1804.52 3594.07 1800.21 3603.83 1791.58C3613.6 1782.95 3618.81 1772.29 3619.46 1759.6H3675.37C3674.71 1776.04 3669.59 1791.42 3659.98 1805.74C3650.38 1819.9 3637.36 1831.13 3620.92 1839.43C3604.48 1847.73 3586.74 1851.88 3567.7 1851.88C3530.75 1851.88 3501.46 1839.92 3479.81 1815.99C3458.16 1792.07 3447.34 1759.03 3447.34 1716.87V1710.77C3447.34 1670.57 3458.08 1638.42 3479.56 1614.33C3501.05 1590.08 3530.35 1577.96 3567.46 1577.96C3598.87 1577.96 3624.42 1587.15 3644.12 1605.54C3663.97 1623.77 3674.39 1647.78 3675.37 1677.57H3619.46C3618.81 1662.43 3613.6 1649.98 3603.83 1640.21C3594.23 1630.45 3581.94 1625.56 3566.97 1625.56C3547.76 1625.56 3532.95 1632.56 3522.53 1646.56C3512.12 1660.4 3506.83 1681.47 3506.66 1709.79V1719.31C3506.66 1747.96 3511.79 1769.36 3522.04 1783.52C3532.46 1797.52 3547.44 1804.52 3566.97 1804.52Z" fill="url(#paint33_linear)"/>
<defs>
<linearGradient id="paint0_linear" x1="-668.196" y1="884.394" x2="-187.503" y2="2829.99" gradientUnits="userSpaceOnUse">
<stop stop-color="#418382"/>
<stop offset="1" stop-color="#6AD2CE"/>
</linearGradient>
<linearGradient id="paint1_linear" x1="882.754" y1="1570.03" x2="1802.37" y2="693.096" gradientUnits="userSpaceOnUse">
<stop stop-color="#418382"/>
<stop offset="1" stop-color="#6AD2CE"/>
</linearGradient>
<linearGradient id="paint2_linear" x1="882.754" y1="1570.03" x2="1802.37" y2="693.096" gradientUnits="userSpaceOnUse">
<stop stop-color="#418382"/>
<stop offset="1" stop-color="#6AD2CE"/>
</linearGradient>
<linearGradient id="paint3_linear" x1="882.754" y1="1570.03" x2="1802.37" y2="693.096" gradientUnits="userSpaceOnUse">
<stop stop-color="#418382"/>
<stop offset="1" stop-color="#6AD2CE"/>
</linearGradient>
<linearGradient id="paint4_linear" x1="882.754" y1="1570.03" x2="1802.37" y2="693.096" gradientUnits="userSpaceOnUse">
<stop stop-color="#418382"/>
<stop offset="1" stop-color="#6AD2CE"/>
</linearGradient>
<linearGradient id="paint5_linear" x1="882.754" y1="1570.03" x2="1802.37" y2="693.096" gradientUnits="userSpaceOnUse">
<stop stop-color="#418382"/>
<stop offset="1" stop-color="#6AD2CE"/>
</linearGradient>
<linearGradient id="paint6_linear" x1="882.754" y1="1570.03" x2="1802.37" y2="693.096" gradientUnits="userSpaceOnUse">
<stop stop-color="#418382"/>
<stop offset="1" stop-color="#6AD2CE"/>
</linearGradient>
<linearGradient id="paint7_linear" x1="882.754" y1="1570.03" x2="1802.37" y2="693.096" gradientUnits="userSpaceOnUse">
<stop stop-color="#418382"/>
<stop offset="1" stop-color="#6AD2CE"/>
</linearGradient>
<linearGradient id="paint8_linear" x1="882.754" y1="1570.03" x2="1802.37" y2="693.096" gradientUnits="userSpaceOnUse">
<stop stop-color="#418382"/>
<stop offset="1" stop-color="#6AD2CE"/>
</linearGradient>
<linearGradient id="paint9_linear" x1="882.754" y1="1570.03" x2="1802.37" y2="693.096" gradientUnits="userSpaceOnUse">
<stop stop-color="#418382"/>
<stop offset="1" stop-color="#6AD2CE"/>
</linearGradient>
<linearGradient id="paint10_linear" x1="882.754" y1="1570.03" x2="1802.37" y2="693.096" gradientUnits="userSpaceOnUse">
<stop stop-color="#418382"/>
<stop offset="1" stop-color="#6AD2CE"/>
</linearGradient>
<linearGradient id="paint11_linear" x1="882.754" y1="1570.03" x2="1802.37" y2="693.096" gradientUnits="userSpaceOnUse">
<stop stop-color="#418382"/>
<stop offset="1" stop-color="#6AD2CE"/>
</linearGradient>
<linearGradient id="paint12_linear" x1="882.754" y1="1570.03" x2="1802.37" y2="693.096" gradientUnits="userSpaceOnUse">
<stop stop-color="#418382"/>
<stop offset="1" stop-color="#6AD2CE"/>
</linearGradient>
<linearGradient id="paint13_linear" x1="882.754" y1="1570.03" x2="1802.37" y2="693.096" gradientUnits="userSpaceOnUse">
<stop stop-color="#418382"/>
<stop offset="1" stop-color="#6AD2CE"/>
</linearGradient>
<linearGradient id="paint14_linear" x1="882.754" y1="1570.03" x2="1802.37" y2="693.096" gradientUnits="userSpaceOnUse">
<stop stop-color="#418382"/>
<stop offset="1" stop-color="#6AD2CE"/>
</linearGradient>
<linearGradient id="paint15_linear" x1="882.754" y1="1570.03" x2="1802.37" y2="693.096" gradientUnits="userSpaceOnUse">
<stop stop-color="#418382"/>
<stop offset="1" stop-color="#6AD2CE"/>
</linearGradient>
<linearGradient id="paint16_linear" x1="882.754" y1="1570.03" x2="1802.37" y2="693.096" gradientUnits="userSpaceOnUse">
<stop stop-color="#418382"/>
<stop offset="1" stop-color="#6AD2CE"/>
</linearGradient>
<linearGradient id="paint17_linear" x1="882.754" y1="1570.03" x2="1802.37" y2="693.096" gradientUnits="userSpaceOnUse">
<stop stop-color="#418382"/>
<stop offset="1" stop-color="#6AD2CE"/>
</linearGradient>
<linearGradient id="paint18_linear" x1="882.754" y1="1570.03" x2="1802.37" y2="693.096" gradientUnits="userSpaceOnUse">
<stop stop-color="#418382"/>
<stop offset="1" stop-color="#6AD2CE"/>
</linearGradient>
<linearGradient id="paint19_linear" x1="882.754" y1="1570.03" x2="1802.37" y2="693.096" gradientUnits="userSpaceOnUse">
<stop stop-color="#418382"/>
<stop offset="1" stop-color="#6AD2CE"/>
</linearGradient>
<linearGradient id="paint20_linear" x1="882.754" y1="1570.03" x2="1802.37" y2="693.096" gradientUnits="userSpaceOnUse">
<stop stop-color="#418382"/>
<stop offset="1" stop-color="#6AD2CE"/>
</linearGradient>
<linearGradient id="paint21_linear" x1="882.754" y1="1570.03" x2="1802.37" y2="693.096" gradientUnits="userSpaceOnUse">
<stop stop-color="#418382"/>
<stop offset="1" stop-color="#6AD2CE"/>
</linearGradient>
<linearGradient id="paint22_linear" x1="882.754" y1="1570.03" x2="1802.37" y2="693.096" gradientUnits="userSpaceOnUse">
<stop stop-color="#418382"/>
<stop offset="1" stop-color="#6AD2CE"/>
</linearGradient>
<linearGradient id="paint23_linear" x1="882.754" y1="1570.03" x2="1802.37" y2="693.096" gradientUnits="userSpaceOnUse">
<stop stop-color="#418382"/>
<stop offset="1" stop-color="#6AD2CE"/>
</linearGradient>
<linearGradient id="paint24_linear" x1="882.754" y1="1570.03" x2="1802.37" y2="693.096" gradientUnits="userSpaceOnUse">
<stop stop-color="#418382"/>
<stop offset="1" stop-color="#6AD2CE"/>
</linearGradient>
<linearGradient id="paint25_linear" x1="882.754" y1="1570.03" x2="1802.37" y2="693.096" gradientUnits="userSpaceOnUse">
<stop stop-color="#418382"/>
<stop offset="1" stop-color="#6AD2CE"/>
</linearGradient>
<linearGradient id="paint26_linear" x1="882.754" y1="1570.03" x2="1802.37" y2="693.096" gradientUnits="userSpaceOnUse">
<stop stop-color="#418382"/>
<stop offset="1" stop-color="#6AD2CE"/>
</linearGradient>
<linearGradient id="paint27_linear" x1="882.754" y1="1570.03" x2="1802.37" y2="693.096" gradientUnits="userSpaceOnUse">
<stop stop-color="#418382"/>
<stop offset="1" stop-color="#6AD2CE"/>
</linearGradient>
<linearGradient id="paint28_linear" x1="882.754" y1="1570.03" x2="1802.37" y2="693.096" gradientUnits="userSpaceOnUse">
<stop stop-color="#418382"/>
<stop offset="1" stop-color="#6AD2CE"/>
</linearGradient>
<linearGradient id="paint29_linear" x1="882.754" y1="1570.03" x2="1802.37" y2="693.096" gradientUnits="userSpaceOnUse">
<stop stop-color="#418382"/>
<stop offset="1" stop-color="#6AD2CE"/>
</linearGradient>
<linearGradient id="paint30_linear" x1="882.754" y1="1570.03" x2="1802.37" y2="693.096" gradientUnits="userSpaceOnUse">
<stop stop-color="#418382"/>
<stop offset="1" stop-color="#6AD2CE"/>
</linearGradient>
<linearGradient id="paint31_linear" x1="882.754" y1="1570.03" x2="1802.37" y2="693.096" gradientUnits="userSpaceOnUse">
<stop stop-color="#418382"/>
<stop offset="1" stop-color="#6AD2CE"/>
</linearGradient>
<linearGradient id="paint32_linear" x1="882.754" y1="1570.03" x2="1802.37" y2="693.096" gradientUnits="userSpaceOnUse">
<stop stop-color="#418382"/>
<stop offset="1" stop-color="#6AD2CE"/>
</linearGradient>
<linearGradient id="paint33_linear" x1="3758.5" y1="1383" x2="3758.5" y2="1934" gradientUnits="userSpaceOnUse">
<stop stop-color="#52A5A2"/>
<stop offset="1" stop-color="#4D9B99"/>
</linearGradient>
</defs>
</svg>
