<svg width="1024" height="1023" viewBox="0 0 1024 1023" fill="none" xmlns="http://www.w3.org/2000/svg">
<path d="M495.656 432.399L496.913 430.438L497.228 434.687L495.656 432.399Z" fill="url(#paint0_linear)"/>
<path d="M498.799 448.087L492.827 440.57L484.656 461.487L500.371 465.082L498.799 448.087Z" fill="url(#paint1_linear)"/>
<path d="M469.459 458.545L478.37 445.472L473.026 459.526L469.459 458.545Z" fill="url(#paint2_linear)"/>
<path d="M476.169 482.404L478.37 477.175L482.455 478.155L476.169 482.404Z" fill="url(#paint3_linear)"/>
<path d="M467.055 475.541L464.226 473.906L452.911 497.438L460.454 492.536L467.055 475.541Z" fill="url(#paint4_linear)"/>
<path d="M440.653 544.829L455.425 505.609L445.682 512.146L434.996 534.044L440.653 544.829Z" fill="url(#paint5_linear)"/>
<path d="M501.942 483.385L492.827 480.77L471.769 494.497L446.129 558.988L507.914 540.58L501.942 483.385Z" fill="url(#paint6_linear)"/>
<path d="M526.772 489.268L515.772 486.653L520.801 537.312L553.802 527.507L526.772 489.268Z" fill="url(#paint7_linear)"/>
<path d="M560.088 525.873L536.83 491.882L613.52 511.165L560.088 525.873Z" fill="url(#paint8_linear)"/>
<path d="M866.534 751.387L736.413 783.09L820.96 905.979L962.082 781.455L866.534 751.387Z" fill="url(#paint9_linear)"/>
<path d="M508.543 548.097C489.161 553.545 450.334 564.439 450.082 564.439L525.829 719.357L508.543 548.097Z" fill="url(#paint10_linear)"/>
<path d="M84.2333 662.162L253.328 613.464L156.837 593.854L84.2333 662.162Z" fill="url(#paint11_linear)"/>
<path d="M170.667 580.127L173.495 577.512L8.48619 445.799L71.6611 377.491L306.694 435.368V484.812L283.187 534.044L306.694 583.5L310.217 590.912L306.694 592.983L288.53 603.659L170.667 580.127Z" fill="url(#paint12_linear)"/>
<path d="M306.694 396.305V306.894L306.912 301.394L146.465 166.031L61.9177 240.875L180.096 278.134L13.8293 329.774L67.8895 362.784L293.559 416.711L306.694 396.305Z" fill="url(#paint13_linear)"/>
<path d="M309.535 287.29C319.703 262.009 329.393 251.926 353.77 241.48L287.902 147.074L279.73 152.304L283.816 140.865L242.013 81.708L155.266 158.514L309.535 287.29Z" fill="url(#paint14_linear)"/>
<path d="M454.797 177.47L433.15 221.977L363.438 238.875L296.388 141.518L457.311 38.893L471.141 177.47H454.797Z" fill="url(#paint15_linear)"/>
<path d="M334.419 0L287.902 128.772L250.5 73.8641L334.419 0Z" fill="url(#paint16_linear)"/>
<path d="M578.947 177.47H484.656L468.94 24.8392L471.141 21.5709L514.2 95.435L604.091 51.9663L613.834 86.2837L578.947 177.47Z" fill="url(#paint17_linear)"/>
<path d="M622.32 113.738L596.862 177.47H616.757H641.493L639.812 171.881L622.32 113.738Z" fill="url(#paint18_linear)"/>
<path d="M622.635 61.7713L617.606 44.776L632.064 37.2589L622.635 61.7713Z" fill="url(#paint19_linear)"/>
<path d="M362.392 699.421L373.707 722.626C359.563 760.756 331.276 836.755 331.276 835.71C331.276 834.664 352.02 744.415 362.392 699.421Z" fill="url(#paint20_linear)"/>
<path fill-rule="evenodd" clip-rule="evenodd" d="M1017.71 92.4935L830.389 124.196L649.979 43.7955L631.435 90.8593L654.224 168.388L686.213 160.633C706.77 155.648 728.508 160.373 745.153 173.458C761.782 186.544 771.493 206.533 771.493 227.704H771.478V287.979L921.223 189.563L914.937 183.026L1017.71 92.4935ZM639.812 171.881L616.757 177.47H641.493L639.812 171.881ZM771.478 408.194V293.6L923.423 191.524L1024 280.422L863.705 431.745L771.478 408.194ZM771.478 465.761V427.334L843.59 445.145L771.478 465.761ZM771.478 476.455V465.761L681.626 491.447V381.573C681.626 373.188 679.074 365.105 674.455 358.325L517.657 463.775L523.001 470.965L648.093 501.034L681.626 491.447V500.954L666.952 504.956L681.626 508.474V527.453L656.58 521.297L656.43 527.369C654.046 527.229 651.644 527.159 649.226 527.159C645.121 527.159 641.064 527.362 637.064 527.758L637.093 516.721L630.807 514.761L564.803 533.063L577.003 550.846C575.453 551.988 573.931 553.166 572.438 554.378L558.517 534.37L521.115 544.829L529.37 626.594C528.008 633.89 527.296 641.414 527.296 649.104C527.296 665.383 530.491 680.917 536.288 695.114L565.432 983.765L744.27 870.027L688.953 1022L819.074 907.613L732.641 784.07L632.692 808.256L633.432 769.972C638.607 770.642 643.884 770.987 649.241 770.987C649.708 770.987 650.174 770.985 650.638 770.98L650.293 785.051L721.955 768.382L711.48 753.362C712.578 752.68 713.664 751.98 714.738 751.263L726.041 767.729L1010.17 692.557L945.424 653.01L990.37 603.332L771.478 549.535V530.015L1006.4 586.337L1015.2 575.878L859.934 452.336L771.478 476.455ZM771.478 476.455V530.015L681.626 508.474V500.954L771.478 476.455ZM771.478 549.535V645.698C771.478 647.2 771.345 648.684 771.214 650.151C771.173 650.617 771.131 651.081 771.094 651.543C767.994 693.229 746.731 729.898 714.738 751.263L653.122 661.508L656.43 527.369C665.104 527.875 673.54 529.289 681.626 531.516V527.453L771.478 549.535ZM711.48 753.362C693.856 764.316 673.187 770.725 650.638 770.98L653.122 669.679L711.48 753.362ZM633.432 769.972C589.303 764.258 552.554 734.95 536.288 695.114L529.37 626.594C534.778 597.617 550.435 572.241 572.438 554.378L635.835 645.493L633.432 769.972ZM577.003 550.846L636.778 637.976L637.064 527.758C614.719 529.971 594.149 538.218 577.003 550.846ZM647.408 340.886H633.272C632.379 341.041 631.489 341.226 630.602 341.442L521.463 367.887L506.971 404.618L513.572 457.565L670.967 353.888C669.413 352.168 667.706 350.569 665.856 349.112C660.417 344.832 654.064 342.043 647.408 340.886ZM332.1 848.355C362.828 831.305 385.427 801.013 394.373 765.398L454.797 890.291L527.401 734.392L553.488 998.145L551.288 1000.76L508.857 926.569L389.107 986.052L306.131 947.813L323.418 870.354L332.1 848.355ZM290.102 941.276L309.643 857.932C298.628 861.326 286.901 863.156 274.647 863.156C207.3 863.156 152.702 808.573 152.702 741.257C152.702 728.927 154.532 717.023 157.935 705.802L285.775 619.836C286.48 619.9 287.184 619.971 287.886 620.048L286.016 619.674L285.775 619.836C282.102 619.499 278.38 619.327 274.601 619.327C271.971 619.327 269.361 619.41 266.772 619.574L270.615 617.059L263.386 615.425L82.0331 664.776L0 741.909L33.9447 771.977L166.217 685.395C162.87 691.881 160.087 698.705 157.935 705.802L44.9454 781.782L108.749 838.651L5.97176 929.51L193.925 898.135L290.102 941.276ZM166.217 685.395C185.338 648.347 222.889 622.355 266.772 619.574L166.217 685.395ZM306.694 592.983L310.217 590.912L306.694 583.5V592.983ZM306.912 301.394L306.694 306.894C306.694 305.046 306.768 303.211 306.912 301.394ZM353.77 241.48C329.393 251.926 319.703 262.009 309.535 287.29C315.848 266.02 332.201 248.707 353.77 241.48ZM353.77 241.48L433.15 221.977L363.438 238.875L359.528 239.823C357.571 240.296 355.651 240.849 353.77 241.48Z" fill="url(#paint21_linear)"/>
<path d="M464.226 473.906L469.459 458.545L396.561 440.57V457.565L464.226 473.906Z" fill="url(#paint22_linear)"/>
<path d="M445.682 512.146L452.911 497.438L396.561 534.37V544.829L445.682 512.146Z" fill="url(#paint23_linear)"/>
<path d="M433.576 562.759L446.129 558.988L440.653 544.829L433.576 562.759Z" fill="url(#paint24_linear)"/>
<path fill-rule="evenodd" clip-rule="evenodd" d="M446.129 558.988L443.135 566.442L450.082 564.439L446.129 558.988ZM430.659 570.038L433.576 562.759L396.561 573.879V579.867L430.659 570.038Z" fill="url(#paint25_linear)"/>
<path d="M443.135 566.442L430.659 570.038L396.561 657.216V683.166L443.135 566.442Z" fill="url(#paint26_linear)"/>
<path d="M484.656 177.47H471.141L475.072 211.815L488.546 208.549L484.656 177.47Z" fill="url(#paint27_linear)"/>
<path d="M596.862 177.47H578.947L574.877 187.622L594.838 182.783L596.862 177.47Z" fill="url(#paint28_linear)"/>
<path d="M491.041 375.258L496.913 430.438L506.971 404.618L503.36 372.273L491.041 375.258Z" fill="url(#paint29_linear)"/>
<path d="M492.827 440.57L495.656 432.399L462.097 382.271L452.911 384.497L492.827 440.57Z" fill="url(#paint30_linear)"/>
<defs>
<linearGradient id="paint0_linear" x1="31.7446" y1="907.94" x2="979.144" y2="173.467" gradientUnits="userSpaceOnUse">
<stop stop-color="#247471"/>
<stop offset="1" stop-color="#45B3AF"/>
</linearGradient>
<linearGradient id="paint1_linear" x1="31.7446" y1="907.94" x2="979.144" y2="173.467" gradientUnits="userSpaceOnUse">
<stop stop-color="#247471"/>
<stop offset="1" stop-color="#45B3AF"/>
</linearGradient>
<linearGradient id="paint2_linear" x1="31.7446" y1="907.94" x2="979.144" y2="173.467" gradientUnits="userSpaceOnUse">
<stop stop-color="#247471"/>
<stop offset="1" stop-color="#45B3AF"/>
</linearGradient>
<linearGradient id="paint3_linear" x1="31.7446" y1="907.94" x2="979.144" y2="173.467" gradientUnits="userSpaceOnUse">
<stop stop-color="#247471"/>
<stop offset="1" stop-color="#45B3AF"/>
</linearGradient>
<linearGradient id="paint4_linear" x1="31.7446" y1="907.94" x2="979.144" y2="173.467" gradientUnits="userSpaceOnUse">
<stop stop-color="#247471"/>
<stop offset="1" stop-color="#45B3AF"/>
</linearGradient>
<linearGradient id="paint5_linear" x1="31.7446" y1="907.94" x2="979.144" y2="173.467" gradientUnits="userSpaceOnUse">
<stop stop-color="#247471"/>
<stop offset="1" stop-color="#45B3AF"/>
</linearGradient>
<linearGradient id="paint6_linear" x1="31.7446" y1="907.94" x2="979.144" y2="173.467" gradientUnits="userSpaceOnUse">
<stop stop-color="#247471"/>
<stop offset="1" stop-color="#45B3AF"/>
</linearGradient>
<linearGradient id="paint7_linear" x1="31.7446" y1="907.94" x2="979.144" y2="173.467" gradientUnits="userSpaceOnUse">
<stop stop-color="#247471"/>
<stop offset="1" stop-color="#45B3AF"/>
</linearGradient>
<linearGradient id="paint8_linear" x1="31.7446" y1="907.94" x2="979.144" y2="173.467" gradientUnits="userSpaceOnUse">
<stop stop-color="#247471"/>
<stop offset="1" stop-color="#45B3AF"/>
</linearGradient>
<linearGradient id="paint9_linear" x1="31.7446" y1="907.94" x2="979.144" y2="173.467" gradientUnits="userSpaceOnUse">
<stop stop-color="#247471"/>
<stop offset="1" stop-color="#45B3AF"/>
</linearGradient>
<linearGradient id="paint10_linear" x1="31.7446" y1="907.94" x2="979.144" y2="173.467" gradientUnits="userSpaceOnUse">
<stop stop-color="#247471"/>
<stop offset="1" stop-color="#45B3AF"/>
</linearGradient>
<linearGradient id="paint11_linear" x1="31.7446" y1="907.94" x2="979.144" y2="173.467" gradientUnits="userSpaceOnUse">
<stop stop-color="#247471"/>
<stop offset="1" stop-color="#45B3AF"/>
</linearGradient>
<linearGradient id="paint12_linear" x1="31.7446" y1="907.94" x2="979.144" y2="173.467" gradientUnits="userSpaceOnUse">
<stop stop-color="#247471"/>
<stop offset="1" stop-color="#45B3AF"/>
</linearGradient>
<linearGradient id="paint13_linear" x1="31.7446" y1="907.94" x2="979.144" y2="173.467" gradientUnits="userSpaceOnUse">
<stop stop-color="#247471"/>
<stop offset="1" stop-color="#45B3AF"/>
</linearGradient>
<linearGradient id="paint14_linear" x1="31.7446" y1="907.94" x2="979.144" y2="173.467" gradientUnits="userSpaceOnUse">
<stop stop-color="#247471"/>
<stop offset="1" stop-color="#45B3AF"/>
</linearGradient>
<linearGradient id="paint15_linear" x1="31.7446" y1="907.94" x2="979.144" y2="173.467" gradientUnits="userSpaceOnUse">
<stop stop-color="#247471"/>
<stop offset="1" stop-color="#45B3AF"/>
</linearGradient>
<linearGradient id="paint16_linear" x1="31.7446" y1="907.94" x2="979.144" y2="173.467" gradientUnits="userSpaceOnUse">
<stop stop-color="#247471"/>
<stop offset="1" stop-color="#45B3AF"/>
</linearGradient>
<linearGradient id="paint17_linear" x1="31.7446" y1="907.94" x2="979.144" y2="173.467" gradientUnits="userSpaceOnUse">
<stop stop-color="#247471"/>
<stop offset="1" stop-color="#45B3AF"/>
</linearGradient>
<linearGradient id="paint18_linear" x1="31.7446" y1="907.94" x2="979.144" y2="173.467" gradientUnits="userSpaceOnUse">
<stop stop-color="#247471"/>
<stop offset="1" stop-color="#45B3AF"/>
</linearGradient>
<linearGradient id="paint19_linear" x1="31.7446" y1="907.94" x2="979.144" y2="173.467" gradientUnits="userSpaceOnUse">
<stop stop-color="#247471"/>
<stop offset="1" stop-color="#45B3AF"/>
</linearGradient>
<linearGradient id="paint20_linear" x1="31.7446" y1="907.94" x2="979.144" y2="173.467" gradientUnits="userSpaceOnUse">
<stop stop-color="#247471"/>
<stop offset="1" stop-color="#45B3AF"/>
</linearGradient>
<linearGradient id="paint21_linear" x1="31.7446" y1="907.94" x2="979.144" y2="173.467" gradientUnits="userSpaceOnUse">
<stop stop-color="#247471"/>
<stop offset="1" stop-color="#45B3AF"/>
</linearGradient>
<linearGradient id="paint22_linear" x1="31.7446" y1="907.94" x2="979.144" y2="173.467" gradientUnits="userSpaceOnUse">
<stop stop-color="#247471"/>
<stop offset="1" stop-color="#45B3AF"/>
</linearGradient>
<linearGradient id="paint23_linear" x1="31.7446" y1="907.94" x2="979.144" y2="173.467" gradientUnits="userSpaceOnUse">
<stop stop-color="#247471"/>
<stop offset="1" stop-color="#45B3AF"/>
</linearGradient>
<linearGradient id="paint24_linear" x1="31.7446" y1="907.94" x2="979.144" y2="173.467" gradientUnits="userSpaceOnUse">
<stop stop-color="#247471"/>
<stop offset="1" stop-color="#45B3AF"/>
</linearGradient>
<linearGradient id="paint25_linear" x1="31.7446" y1="907.94" x2="979.144" y2="173.467" gradientUnits="userSpaceOnUse">
<stop stop-color="#247471"/>
<stop offset="1" stop-color="#45B3AF"/>
</linearGradient>
<linearGradient id="paint26_linear" x1="31.7446" y1="907.94" x2="979.144" y2="173.467" gradientUnits="userSpaceOnUse">
<stop stop-color="#247471"/>
<stop offset="1" stop-color="#45B3AF"/>
</linearGradient>
<linearGradient id="paint27_linear" x1="31.7446" y1="907.94" x2="979.144" y2="173.467" gradientUnits="userSpaceOnUse">
<stop stop-color="#247471"/>
<stop offset="1" stop-color="#45B3AF"/>
</linearGradient>
<linearGradient id="paint28_linear" x1="31.7446" y1="907.94" x2="979.144" y2="173.467" gradientUnits="userSpaceOnUse">
<stop stop-color="#247471"/>
<stop offset="1" stop-color="#45B3AF"/>
</linearGradient>
<linearGradient id="paint29_linear" x1="31.7446" y1="907.94" x2="979.144" y2="173.467" gradientUnits="userSpaceOnUse">
<stop stop-color="#247471"/>
<stop offset="1" stop-color="#45B3AF"/>
</linearGradient>
<linearGradient id="paint30_linear" x1="31.7446" y1="907.94" x2="979.144" y2="173.467" gradientUnits="userSpaceOnUse">
<stop stop-color="#247471"/>
<stop offset="1" stop-color="#45B3AF"/>
</linearGradient>
</defs>
</svg>
