<svg width="22" height="22" viewBox="0 0 22 22" fill="none" xmlns="http://www.w3.org/2000/svg">
<path fill-rule="evenodd" clip-rule="evenodd" d="M18.018 6.3976L15.2955 3.674L14.0586 4.91085L16.7825 7.63306L18.018 6.3976ZM4.74868 16.9444L5.24148 13.728L12.892 6.07745L15.6155 8.80008L7.96398 16.4516L4.74868 16.9444ZM14.5178 1.342L3.43198 12.4278C3.26626 12.5931 3.15759 12.807 3.12178 13.0383L2.34628 18.0917C2.32011 18.2624 2.33449 18.4368 2.38825 18.6009C2.44202 18.765 2.53366 18.9141 2.65576 19.0362C2.77785 19.1583 2.92698 19.25 3.09107 19.3037C3.25516 19.3575 3.4296 19.3719 3.60028 19.3457L8.65478 18.5702C8.88597 18.5347 9.09982 18.4264 9.26528 18.2611L20.3511 7.1753C20.5573 6.96902 20.6731 6.68928 20.6731 6.3976C20.6731 6.10592 20.5573 5.82618 20.3511 5.6199L16.0721 1.3409C15.8658 1.13502 15.5863 1.01938 15.2949 1.01938C15.0035 1.01938 14.724 1.13502 14.5178 1.3409V1.342Z" fill="#649AA6"/>
</svg>
