<svg width="22" height="22" viewBox="0 0 22 22" fill="none" xmlns="http://www.w3.org/2000/svg">
<path fill-rule="evenodd" clip-rule="evenodd" d="M22,11c0,6.0751 -4.9249,11 -11,11c-6.07513,0 -11,-4.9249 -11,-11c0,-6.07513 4.92487,-11 11,-11c6.0751,0 11,4.92487 11,11zM2,11c0,4.9706 4.02944,9 9,9c4.9706,0 9,-4.0294 9,-9c0,-4.97056 -4.0294,-9 -9,-9c-4.97056,0 -9,4.02944 -9,9z" fill="#649AA6"/>
<path d="M9.243,15.314l-4.243,-4.244l1.5648,-1.56482l2.65403,2.65312l5.50517,-5.5062l1.59,1.58991z" fill="#649AA6"/>
</svg>
