<svg width="22" height="22" viewBox="0 0 22 22" fill="none" xmlns="http://www.w3.org/2000/svg">
<path d="M10.9444 0C9.6 0 8.5 1.1 8.5 2.44444C8.5 3.78889 9.6 4.88889 10.9444 4.88889C12.2889 4.88889 13.3889 3.78889 13.3889 2.44444C13.3889 1.1 12.2889 0 10.9444 0ZM10.9444 17.1111C9.6 17.1111 8.5 18.2111 8.5 19.5556C8.5 20.9 9.6 22 10.9444 22C12.2889 22 13.3889 20.9 13.3889 19.5556C13.3889 18.2111 12.2889 17.1111 10.9444 17.1111ZM10.9444 8.55556C9.6 8.55556 8.5 9.65556 8.5 11C8.5 12.3444 9.6 13.4444 10.9444 13.4444C12.2889 13.4444 13.3889 12.3444 13.3889 11C13.3889 9.65556 12.2889 8.55556 10.9444 8.55556Z" fill="#649AA6"/>
</svg>
