<svg width="22" height="22" viewBox="0 0 22 22" fill="none" xmlns="http://www.w3.org/2000/svg">
<path d="M22 1V14.75C22 15.7711 21.573 16.7503 20.813 17.4724C20.053 18.1944 19.0222 18.6 17.9474 18.6C16.8725 18.6 15.8417 18.1944 15.0817 17.4724C14.3217 16.7503 13.8947 15.7711 13.8947 14.75C13.8947 13.7289 14.3217 12.7497 15.0817 12.0276C15.8417 11.3056 16.8725 10.9 17.9474 10.9C18.5726 10.9 19.1632 11.032 19.6842 11.274V4.817L8.10526 7.16V16.95C8.10526 17.9711 7.67829 18.9503 6.91827 19.6724C6.15826 20.3944 5.12746 20.8 4.05263 20.8C2.97781 20.8 1.947 20.3944 1.18699 19.6724C0.426972 18.9503 0 17.9711 0 16.95C0 15.9289 0.426972 14.9497 1.18699 14.2276C1.947 13.5056 2.97781 13.1 4.05263 13.1C4.67789 13.1 5.26842 13.232 5.78947 13.474V4.3L22 1Z" fill="#649AA6"/>
</svg>
