<svg width="22" height="22" viewBox="0 0 22 22" fill="none" xmlns="http://www.w3.org/2000/svg">
<path d="M11 11C9.4875 11 8.19271 10.4615 7.11562 9.38437C6.03854 8.30729 5.5 7.0125 5.5 5.5C5.5 3.9875 6.03854 2.69271 7.11562 1.61563C8.19271 0.538542 9.4875 0 11 0C12.5125 0 13.8073 0.538542 14.8844 1.61563C15.9615 2.69271 16.5 3.9875 16.5 5.5C16.5 7.0125 15.9615 8.30729 14.8844 9.38437C13.8073 10.4615 12.5125 11 11 11ZM0 22V18.15C0 17.3708 0.20075 16.6545 0.60225 16.0009C1.00375 15.3473 1.53633 14.8491 2.2 14.5063C3.62083 13.7958 5.06458 13.2628 6.53125 12.9071C7.99792 12.5515 9.4875 12.3741 11 12.375C12.5125 12.375 14.0021 12.5528 15.4687 12.9085C16.9354 13.2642 18.3792 13.7968 19.8 14.5063C20.4646 14.85 20.9976 15.3487 21.3991 16.0022C21.8006 16.6558 22.0009 17.3718 22 18.15V22H0Z" fill="#649AA6"/>
</svg>
