<svg width="22" height="22" viewBox="0 0 22 22" fill="none" xmlns="http://www.w3.org/2000/svg">
<path d="M19.0526 10.5261C19.0526 8.8136 18.5368 7.14077 17.5726 5.72551C16.6083 4.31025 15.2402 3.21815 13.6465 2.59145C12.0528 1.96474 10.3073 1.83248 8.63736 2.21188C6.96741 2.59129 5.45041 3.46477 4.28392 4.71858C3.11743 5.97238 2.35551 7.5484 2.09741 9.24138C1.8393 10.9344 2.09696 12.6658 2.83683 14.2103C3.57671 15.7547 4.7645 17.0406 6.24553 17.9004C7.72655 18.7602 9.43215 19.1541 11.1402 19.0308M7.68421 8.63137H7.69369M13.3684 8.63137H13.3779M8.1579 13.3683C8.78127 14.0049 9.63579 14.3157 10.5263 14.3157C10.623 14.3157 10.7186 14.3119 10.8143 14.3043M17.1579 16.2105V16.2199M19.1673 18.2199C19.5648 17.8224 19.8356 17.316 19.9453 16.7646C20.0551 16.2133 19.9988 15.6418 19.7837 15.1224C19.5687 14.603 19.2044 14.1591 18.737 13.8467C18.2696 13.5344 17.72 13.3677 17.1579 13.3677C16.5957 13.3677 16.0462 13.5344 15.5788 13.8467C15.1114 14.1591 14.7471 14.603 14.5321 15.1224C14.317 15.6418 14.2607 16.2133 14.3705 16.7646C14.4802 17.316 14.751 17.8224 15.1485 18.2199C15.5445 18.6168 16.2143 19.2099 17.1579 20C18.1536 19.1568 18.8243 18.5638 19.1673 18.2199Z" stroke="#649AA6" stroke-width="2" stroke-linecap="round" stroke-linejoin="round"/>
</svg>
