<svg width="22" height="22" viewBox="0 0 22 22" fill="none" xmlns="http://www.w3.org/2000/svg">
<path d="M6.6 0H4.4C3.81652 0 3.25694 0.231785 2.84436 0.644365C2.43178 1.05695 2.2 1.61652 2.2 2.2V19.8C2.2 20.3835 2.43178 20.9431 2.84436 21.3556C3.25694 21.7682 3.81652 22 4.4 22H6.6C7.18347 22 7.74305 21.7682 8.15563 21.3556C8.56821 20.9431 8.8 20.3835 8.8 19.8V2.2C8.8 1.61652 8.56821 1.05695 8.15563 0.644365C7.74305 0.231785 7.18347 0 6.6 0ZM17.6 0H15.4C14.8165 0 14.2569 0.231785 13.8444 0.644365C13.4318 1.05695 13.2 1.61652 13.2 2.2V19.8C13.2 20.3835 13.4318 20.9431 13.8444 21.3556C14.2569 21.7682 14.8165 22 15.4 22H17.6C18.1835 22 18.7431 21.7682 19.1556 21.3556C19.5682 20.9431 19.8 20.3835 19.8 19.8V2.2C19.8 1.61652 19.5682 1.05695 19.1556 0.644365C18.7431 0.231785 18.1835 0 17.6 0Z" fill="#99ECFF"/>
<path d="M6.6 0H4.4C3.81652 0 3.25694 0.231785 2.84436 0.644365C2.43178 1.05695 2.2 1.61652 2.2 2.2V19.8C2.2 20.3835 2.43178 20.9431 2.84436 21.3556C3.25694 21.7682 3.81652 22 4.4 22H6.6C7.18347 22 7.74305 21.7682 8.15563 21.3556C8.56821 20.9431 8.8 20.3835 8.8 19.8V2.2C8.8 1.61652 8.56821 1.05695 8.15563 0.644365C7.74305 0.231785 7.18347 0 6.6 0ZM17.6 0H15.4C14.8165 0 14.2569 0.231785 13.8444 0.644365C13.4318 1.05695 13.2 1.61652 13.2 2.2V19.8C13.2 20.3835 13.4318 20.9431 13.8444 21.3556C14.2569 21.7682 14.8165 22 15.4 22H17.6C18.1835 22 18.7431 21.7682 19.1556 21.3556C19.5682 20.9431 19.8 20.3835 19.8 19.8V2.2C19.8 1.61652 19.5682 1.05695 19.1556 0.644365C18.7431 0.231785 18.1835 0 17.6 0Z" fill="black" fill-opacity="0.35"/>
</svg>
