<svg width="22" height="22" viewBox="0 0 22 22" fill="none" xmlns="http://www.w3.org/2000/svg">
<path d="M4.16015 22C3.80131 21.9993 3.44882 21.9031 3.13735 21.7208C2.436 21.3143 2 20.5252 2 19.6685V2.33162C2 1.47254 2.436 0.685809 3.13735 0.279289C3.45623 0.0918332 3.81849 -0.00456619 4.18625 0.000166217C4.55401 0.00489863 4.91378 0.110589 5.22795 0.306191L19.7137 9.1755C20.0156 9.36912 20.2645 9.63801 20.437 9.95693C20.6095 10.2759 20.7 10.6344 20.7 10.9989C20.7 11.3633 20.6095 11.7219 20.437 12.0408C20.2645 12.3597 20.0156 12.6286 19.7137 12.8222L5.22561 21.6939C4.9041 21.8927 4.53585 21.9985 4.16015 22Z" fill="#99ECFF"/>
<path d="M4.16015 22C3.80131 21.9993 3.44882 21.9031 3.13735 21.7208C2.436 21.3143 2 20.5252 2 19.6685V2.33162C2 1.47254 2.436 0.685809 3.13735 0.279289C3.45623 0.0918332 3.81849 -0.00456619 4.18625 0.000166217C4.55401 0.00489863 4.91378 0.110589 5.22795 0.306191L19.7137 9.1755C20.0156 9.36912 20.2645 9.63801 20.437 9.95693C20.6095 10.2759 20.7 10.6344 20.7 10.9989C20.7 11.3633 20.6095 11.7219 20.437 12.0408C20.2645 12.3597 20.0156 12.6286 19.7137 12.8222L5.22561 21.6939C4.9041 21.8927 4.53585 21.9985 4.16015 22Z" fill="black" fill-opacity="0.35"/>
</svg>
