<svg width="22" height="22" viewBox="0 0 22 22" fill="none" xmlns="http://www.w3.org/2000/svg">
<path d="M3.21711 0.00214105C3.70566 0.00214105 4.17421 0.195277 4.51967 0.53906C4.86513 0.882843 5.05921 1.34911 5.05921 1.8353V8.83795L5.31711 8.56297L14.7118 0.845392C15.2774 0.394425 15.9589 0.110638 16.6787 0.0263698C17.3985 -0.0578983 18.1276 0.0607419 18.7829 0.368772C19.3352 0.631906 19.8013 1.04531 20.1273 1.56114C20.4533 2.07697 20.6259 2.67412 20.625 3.28349V18.7186C20.6259 19.328 20.4533 19.9252 20.1273 20.441C19.8013 20.9568 19.3352 21.3702 18.7829 21.6334C18.2563 21.8717 17.6851 21.9966 17.1066 22C16.2347 22.001 15.389 21.7033 14.7118 21.1567L5.31711 13.4392L5.05921 13.1642V20.1668C5.05921 20.653 4.86513 21.1193 4.51967 21.4631C4.17421 21.8069 3.70566 22 3.21711 22C2.72855 22 2.26 21.8069 1.91454 21.4631C1.56908 21.1193 1.375 20.653 1.375 20.1668V1.8353C1.375 1.34911 1.56908 0.882843 1.91454 0.53906C2.26 0.195277 2.72855 0.00214105 3.21711 0.00214105Z" fill="#99ECFF"/>
<path d="M3.21711 0.00214105C3.70566 0.00214105 4.17421 0.195277 4.51967 0.53906C4.86513 0.882843 5.05921 1.34911 5.05921 1.8353V8.83795L5.31711 8.56297L14.7118 0.845392C15.2774 0.394425 15.9589 0.110638 16.6787 0.0263698C17.3985 -0.0578983 18.1276 0.0607419 18.7829 0.368772C19.3352 0.631906 19.8013 1.04531 20.1273 1.56114C20.4533 2.07697 20.6259 2.67412 20.625 3.28349V18.7186C20.6259 19.328 20.4533 19.9252 20.1273 20.441C19.8013 20.9568 19.3352 21.3702 18.7829 21.6334C18.2563 21.8717 17.6851 21.9966 17.1066 22C16.2347 22.001 15.389 21.7033 14.7118 21.1567L5.31711 13.4392L5.05921 13.1642V20.1668C5.05921 20.653 4.86513 21.1193 4.51967 21.4631C4.17421 21.8069 3.70566 22 3.21711 22C2.72855 22 2.26 21.8069 1.91454 21.4631C1.56908 21.1193 1.375 20.653 1.375 20.1668V1.8353C1.375 1.34911 1.56908 0.882843 1.91454 0.53906C2.26 0.195277 2.72855 0.00214105 3.21711 0.00214105Z" fill="black" fill-opacity="0.35"/>
</svg>
