<svg width="22" height="22" viewBox="0 0 22 22" fill="none" xmlns="http://www.w3.org/2000/svg">
<path d="M0 9.62405C0 10.3846 0.614453 10.999 1.375 10.999C2.13555 10.999 2.75 10.3846 2.75 9.62405C2.75 7.3467 4.59766 5.49905 6.875 5.49905H13.75V6.87405C13.75 7.42834 14.0852 7.93108 14.6008 8.14592C15.1164 8.36076 15.7051 8.24045 16.1004 7.84944L18.8504 5.09944C19.3875 4.56233 19.3875 3.69006 18.8504 3.15295L16.1004 0.402951C15.7051 0.00763888 15.1164 -0.108377 14.6008 0.106467C14.0852 0.321311 13.75 0.819748 13.75 1.37405V2.74905H6.875C3.07656 2.74905 0 5.82561 0 9.62405ZM22 12.374C22 11.6135 21.3855 10.999 20.625 10.999C19.8645 10.999 19.25 11.6135 19.25 12.374C19.25 14.6514 17.4023 16.499 15.125 16.499H8.25V15.124C8.25 14.5697 7.91484 14.067 7.39922 13.8522C6.88359 13.6373 6.29492 13.7576 5.89961 14.1487L3.14961 16.8987C2.6125 17.4358 2.6125 18.308 3.14961 18.8451L5.89961 21.5951C6.29492 21.9905 6.88359 22.1065 7.39922 21.8916C7.91484 21.6768 8.25 21.1783 8.25 20.6197V19.249H15.125C18.9234 19.249 22 16.1725 22 12.374Z" fill="#649AA6"/>
</svg>
