<svg width="22" height="22" viewBox="0 0 22 22" fill="black" xmlns="http://www.w3.org/2000/svg">
<path fill-rule="evenodd" clip-rule="evenodd" d="M18.8467 3.34022C18.4515 3.0093 17.8629 2.90748 17.3474 3.0893C16.8319 3.27112 16.4968 3.69659 16.4968 4.1657V5.32937H15.122C13.8246 5.32937 12.6003 5.84575 11.8227 6.72578L10.4823 8.23856L12.2007 10.1768L14.0223 8.12219C14.28 7.82764 14.6881 7.65672 15.122 7.65672H16.4968V8.81312C16.4968 9.28587 16.8319 9.7077 17.3474 9.88952C17.8629 10.0713 18.4515 9.97316 18.8467 9.63861L21.5962 7.31126C21.8539 7.09307 22 6.79851 22 6.48941C22 6.18031 21.8539 5.88576 21.5962 5.66757L18.8467 3.34022ZM17.3431 19.2062C17.8586 19.388 18.4472 19.2898 18.8424 18.9553L18.8467 18.948L21.5962 16.6207C21.8539 16.4025 22 16.1079 22 15.7988C22 15.4897 21.8539 15.1952 21.5962 14.977L18.8467 12.6496C18.4515 12.3187 17.8629 12.2169 17.3474 12.3987C16.8319 12.5805 16.4968 13.006 16.4968 13.4751V14.6388H15.122C14.6881 14.6388 14.28 14.4679 14.0223 14.1733L7.42355 6.72578C6.64597 5.84575 5.4216 5.32937 4.12419 5.32937H1.37473C0.614333 5.32937 0 5.84939 0 6.49305C0 7.13671 0.614333 7.65672 1.37473 7.65672H4.12419C4.55809 7.65672 4.96622 7.82764 5.22398 8.12219L11.8227 15.5697C12.6003 16.4497 13.8246 16.9661 15.122 16.9661H16.4925V18.1298C16.4925 18.6025 16.8276 19.0244 17.3431 19.2062Z" fill="#649AA6"/>
<path d="M8.76391 14.0569L7.0455 12.1187L5.22398 14.1733C4.96622 14.4679 4.55809 14.6388 4.12419 14.6388H1.37473C0.614333 14.6388 0 15.1588 0 15.8024C0 16.4461 0.614333 16.9661 1.37473 16.9661H4.12419C5.4216 16.9661 6.64597 16.4497 7.42355 15.5697L8.76391 14.0569Z" fill="#649AA6"/>
</svg>
