<svg width="22" height="22" viewBox="0 0 22 22" fill="none" xmlns="http://www.w3.org/2000/svg">
<path d="M18.7829 0.00214105C18.2943 0.00214105 17.8258 0.195277 17.4803 0.53906C17.1349 0.882843 16.9408 1.34911 16.9408 1.8353V8.83795L16.6829 8.56297L7.28816 0.845392C6.72258 0.394425 6.04106 0.110638 5.32129 0.0263698C4.60151 -0.0578983 3.87242 0.0607419 3.21711 0.368772C2.6648 0.631906 2.19867 1.04531 1.87266 1.56114C1.54666 2.07697 1.37412 2.67412 1.375 3.28349V18.7186C1.37412 19.328 1.54666 19.9252 1.87266 20.441C2.19867 20.9568 2.6648 21.3702 3.21711 21.6334C3.74371 21.8717 4.31494 21.9966 4.89342 22C5.76531 22.001 6.61097 21.7033 7.28816 21.1567L16.6829 13.4392L16.9408 13.1642V20.1668C16.9408 20.653 17.1349 21.1193 17.4803 21.4631C17.8258 21.8069 18.2943 22 18.7829 22C19.2715 22 19.74 21.8069 20.0855 21.4631C20.4309 21.1193 20.625 20.653 20.625 20.1668V1.8353C20.625 1.34911 20.4309 0.882843 20.0855 0.53906C19.74 0.195277 19.2715 0.00214105 18.7829 0.00214105Z" fill="#99ECFF"/>
<path d="M18.7829 0.00214105C18.2943 0.00214105 17.8258 0.195277 17.4803 0.53906C17.1349 0.882843 16.9408 1.34911 16.9408 1.8353V8.83795L16.6829 8.56297L7.28816 0.845392C6.72258 0.394425 6.04106 0.110638 5.32129 0.0263698C4.60151 -0.0578983 3.87242 0.0607419 3.21711 0.368772C2.6648 0.631906 2.19867 1.04531 1.87266 1.56114C1.54666 2.07697 1.37412 2.67412 1.375 3.28349V18.7186C1.37412 19.328 1.54666 19.9252 1.87266 20.441C2.19867 20.9568 2.6648 21.3702 3.21711 21.6334C3.74371 21.8717 4.31494 21.9966 4.89342 22C5.76531 22.001 6.61097 21.7033 7.28816 21.1567L16.6829 13.4392L16.9408 13.1642V20.1668C16.9408 20.653 17.1349 21.1193 17.4803 21.4631C17.8258 21.8069 18.2943 22 18.7829 22C19.2715 22 19.74 21.8069 20.0855 21.4631C20.4309 21.1193 20.625 20.653 20.625 20.1668V1.8353C20.625 1.34911 20.4309 0.882843 20.0855 0.53906C19.74 0.195277 19.2715 0.00214105 18.7829 0.00214105Z" fill="black" fill-opacity="0.35"/>
</svg>
