<svg width="22" height="22" viewBox="0 0 22 22" fill="none" xmlns="http://www.w3.org/2000/svg">
<path fill-rule="evenodd" clip-rule="evenodd" d="M1.97656,7.5625l3.17969,-0.00002l4.29687,-3.4375c0.85938,-0.42967 1.71878,0.00001 1.71878,0.85938v12.71874c0.0859,0.8594 -1.0313,1.375 -1.71878,0.8594l-4.21093,-3.3516h-3.26563c-0.617,0 -1.11717,-0.5002 -1.11719,-1.1172v-5.41401c0,-0.61701 0.50019,-1.11719 1.11719,-1.11719zM3.09375,12.9765h2.40625c0.39219,-0.0646 0.6192,0.0572 1.03125,0.4297l2.40625,1.8907v-7.90629l-2.40625,1.97656c-0.36224,0.28669 -0.54905,0.37466 -0.85937,0.42968l-2.57813,0.00003z" fill="#649AA6"/>
<path d="M17.2734,9.79688l1.8907,-1.89063c1.375,-1.03125 2.5781,0.60156 1.5468,1.54687l-1.8906,1.89068l1.8906,1.8906c1.2032,1.2031 -0.5156,2.5781 -1.5468,1.6328l-1.8907,-1.8906l-1.8046,1.8046c-1.375,1.2891 -2.5782,-0.6874 -1.5469,-1.5468l1.8906,-1.8906l-1.8906,-1.89068c-1.2891,-1.375 0.6875,-2.49218 1.4609,-1.54687z" fill="#649AA6"/>
<path fill-rule="evenodd" clip-rule="evenodd" d="M0.85938,8.67969c0,-0.61701 0.50019,-1.11719 1.11719,-1.11719l3.17969,-0.00002l4.29687,-3.4375c0.85938,-0.42967 1.71878,0.00001 1.71878,0.85938v12.71874c0.0859,0.8594 -1.0313,1.375 -1.71878,0.8594l-4.21093,-3.3516h-3.26563c-0.617,0 -1.11717,-0.5002 -1.11719,-1.1172zM13.9219,9.45312c-1.2891,-1.375 0.6875,-2.49218 1.4609,-1.54687l1.8906,1.89063l1.8907,-1.89063c1.375,-1.03125 2.5781,0.60156 1.5468,1.54687l-1.8906,1.89068l1.8906,1.8906c1.2032,1.2031 -0.5156,2.5781 -1.5468,1.6328l-1.8907,-1.8906l-1.8046,1.8046c-1.375,1.2891 -2.5782,-0.6874 -1.5469,-1.5468l1.8906,-1.8906zM3.09375,12.9765h2.40625c0.39219,-0.0646 0.6192,0.0572 1.03125,0.4297l2.40625,1.8907v-7.90629l-2.40625,1.97656c-0.36224,0.28669 -0.54905,0.37466 -0.85937,0.42968l-2.57813,0.00003z" fill="#649AA6"/>
</svg>
