<svg width="22" height="22" viewBox="0 0 22 22" fill="none" xmlns="http://www.w3.org/2000/svg">
<path fill-rule="evenodd" clip-rule="evenodd" d="M1.97656,7.5625l3.17969,-0.00002l4.29687,-3.4375c0.85938,-0.42967 1.71878,0.00001 1.71878,0.85938v12.71874c0.0859,0.8594 -1.0313,1.375 -1.71878,0.8594l-4.21093,-3.3516h-3.26563c-0.617,0 -1.11717,-0.5002 -1.11719,-1.1172v-5.41401c0,-0.61701 0.50019,-1.11719 1.11719,-1.11719zM3.09375,12.9765h2.40625c0.39219,-0.0646 0.6192,0.0572 1.03125,0.4297l2.40625,1.8907v-7.90629l-2.40625,1.97656c-0.36224,0.28669 -0.54905,0.37466 -0.85937,0.42968l-2.57813,0.00003z" fill="#649AA6"/>
<path d="M14.4375,11.3438c-0.1073,-1.0577 -0.3431,-1.54898 -0.9453,-2.32033c-0.6016,-0.51566 -0.4955,-1.32233 0,-1.71875c0.4297,-0.34378 1.0785,-0.28623 1.375,0c2.4922,2.40619 2.2344,5.92968 0,8.07808c-0.2712,0.2608 -0.9453,0.4297 -1.375,0c-0.5731,-0.6578 -0.5156,-1.289 0,-1.7187c0.57,-0.6735 0.7917,-1.1648 0.9453,-2.3203z" fill="#649AA6"/>
<path fill-rule="evenodd" clip-rule="evenodd" d="M0.85938,8.67969c0,-0.61701 0.50019,-1.11719 1.11719,-1.11719l3.17969,-0.00002l4.29687,-3.4375c0.85938,-0.42967 1.71878,0.00001 1.71878,0.85938v12.71874c0.0859,0.8594 -1.0313,1.375 -1.71878,0.8594l-4.21093,-3.3516h-3.26563c-0.617,0 -1.11717,-0.5002 -1.11719,-1.1172zM14.4375,11.3438c-0.1073,-1.0577 -0.3431,-1.54898 -0.9453,-2.32033c-0.6016,-0.51566 -0.4955,-1.32233 0,-1.71875c0.4297,-0.34378 1.0785,-0.28623 1.375,0c2.4922,2.40619 2.2344,5.92968 0,8.07808c-0.2712,0.2608 -0.9453,0.4297 -1.375,0c-0.5731,-0.6578 -0.5156,-1.289 0,-1.7187c0.57,-0.6735 0.7917,-1.1648 0.9453,-2.3203zM3.09375,12.9765h2.40625c0.39219,-0.0646 0.6192,0.0572 1.03125,0.4297l2.40625,1.8907v-7.90629l-2.40625,1.97656c-0.36224,0.28669 -0.54905,0.37466 -0.85937,0.42968l-2.57813,0.00003z" fill="#649AA6"/>
</svg>
