<svg width="22" height="22" viewBox="0 0 22 22" fill="none" xmlns="http://www.w3.org/2000/svg">
<path d="M11 0C4.92514 0 0 4.92514 0 11C0 17.0749 4.92514 22 11 22C17.0749 22 22 17.0749 22 11C22 4.92514 17.0749 0 11 0ZM16.0769 12.6923H11C10.7756 12.6923 10.5604 12.6032 10.4017 12.4445C10.243 12.2858 10.1538 12.0706 10.1538 11.8462V4.23077C10.1538 4.00636 10.243 3.79113 10.4017 3.63245C10.5604 3.47376 10.7756 3.38462 11 3.38462C11.2244 3.38462 11.4396 3.47376 11.5983 3.63245C11.757 3.79113 11.8462 4.00636 11.8462 4.23077V11H16.0769C16.3013 11 16.5166 11.0891 16.6752 11.2478C16.8339 11.4065 16.9231 11.6217 16.9231 11.8462C16.9231 12.0706 16.8339 12.2858 16.6752 12.4445C16.5166 12.6032 16.3013 12.6923 16.0769 12.6923Z" fill="#649AA6"/>
</svg>
