<svg width="22" height="22" viewBox="0 0 22 22" fill="none" xmlns="http://www.w3.org/2000/svg">
<path d="M21.9195 21.102L15.8287 10.6993L12.9718 5.82268L9.73738 0.300091C9.6839 0.208855 9.60695 0.133089 9.51428 0.0804114C9.4216 0.0277333 9.31648 0 9.20946 0C9.10245 0 8.99732 0.0277333 8.90464 0.0804114C8.81197 0.133089 8.73502 0.208855 8.68154 0.300091L2.57648 10.6916L0.0818683 14.9378C0.0282826 15.0291 4.71128e-05 15.1326 5.89073e-08 15.238C-4.6995e-05 15.3434 0.028096 15.447 0.0816002 15.5383C0.135104 15.6296 0.212084 15.7054 0.304802 15.7582C0.39752 15.8109 0.502708 15.8387 0.609793 15.8387L5.32228 15.8416C5.42929 15.8416 5.53442 15.814 5.62716 15.7614C5.71989 15.7088 5.79698 15.6332 5.8507 15.5421L8.2996 11.3724L8.67416 10.7347C8.68894 10.7101 8.70537 10.6865 8.72332 10.664C8.785 10.5869 8.86494 10.5259 8.95614 10.4863C9.04734 10.4466 9.14702 10.4296 9.24646 10.4367C9.34589 10.4437 9.44205 10.4747 9.52652 10.5268C9.61099 10.5789 9.6812 10.6506 9.731 10.7356L12.2723 15.0747L12.7427 15.8765C12.7683 15.9209 12.7885 15.9682 12.8027 16.0173C12.8275 16.1065 12.8311 16.2002 12.8131 16.291C12.7951 16.3818 12.756 16.4673 12.6989 16.5408C12.6418 16.6142 12.5682 16.6737 12.4839 16.7146C12.3996 16.7555 12.3068 16.7767 12.2128 16.7764L6.66913 16.773C6.56212 16.773 6.45699 16.8007 6.36425 16.8533C6.27152 16.9058 6.19443 16.9814 6.14071 17.0725L3.78127 21.0884C3.72767 21.1796 3.69941 21.2831 3.69933 21.3885C3.69925 21.4938 3.72735 21.5973 3.78081 21.6886C3.83427 21.7799 3.9112 21.8557 4.00387 21.9084C4.09654 21.9611 4.20168 21.9888 4.30871 21.9889L9.19422 21.9923L15.286 21.9961L21.3901 22C21.4969 22.0001 21.6019 21.9725 21.6945 21.92C21.7871 21.8676 21.864 21.7921 21.9177 21.7012C21.9713 21.6102 21.9997 21.507 22 21.4018C22.0003 21.2966 21.9725 21.1933 21.9195 21.102Z" fill="#649AA6"/>
</svg>
