<svg width="22" height="22" viewBox="0 0 22 22" fill="none" xmlns="http://www.w3.org/2000/svg">
<path d="M20.119 17.1818C19.9794 17.1818 19.8364 17.1392 19.7113 17.0554C19.3751 16.8227 19.285 16.3566 19.5071 16.0212C20.1846 14.9977 20.5439 13.7909 20.5384 12.5573C20.5432 11.3234 20.184 10.1163 19.5071 9.09203C19.3987 8.92829 19.3587 8.72756 19.3956 8.53384C19.4326 8.34011 19.5437 8.16919 19.7044 8.05853C19.8655 7.9488 20.0627 7.90816 20.2531 7.94546C20.4436 7.98275 20.6118 8.09496 20.7212 8.25768C21.5583 9.532 22.0034 11.0306 22 12.5629C22 14.0995 21.56 15.5949 20.7212 16.8653C20.5968 17.091 20.3637 17.2 20.1307 17.2L20.119 17.1818ZM18.0207 15.9778C17.8749 15.9769 17.7328 15.9311 17.613 15.8465C17.5334 15.7934 17.465 15.7247 17.4118 15.6444C17.3586 15.5641 17.3218 15.4739 17.3034 15.3789C17.285 15.2839 17.2855 15.1862 17.3048 15.0914C17.3241 14.9966 17.3618 14.9067 17.4157 14.8269C17.8636 14.1598 18.102 13.3705 18.0998 12.5629C18.0969 11.7563 17.8588 10.9687 17.4157 10.2995C17.3618 10.2195 17.3241 10.1293 17.3048 10.0342C17.2855 9.93919 17.285 9.8412 17.3034 9.74598C17.3218 9.65075 17.3586 9.56019 17.4118 9.47959C17.4649 9.39899 17.5334 9.32995 17.613 9.27651C17.6932 9.22261 17.7829 9.18532 17.8773 9.16679C17.9716 9.14826 18.0686 9.14885 18.1627 9.16852C18.2568 9.18819 18.3461 9.22656 18.4256 9.28143C18.505 9.3363 18.5731 9.40658 18.6257 9.48824C19.2344 10.3987 19.5612 11.4733 19.5642 12.5741C19.5671 13.6772 19.2398 14.7552 18.6257 15.6648C18.5615 15.7685 18.4721 15.8538 18.3662 15.9124C18.2603 15.971 18.1413 16.001 18.0207 15.9995V15.9778ZM14.6018 9.31005C14.3151 6.33323 11.8374 4 8.82612 4C7.61578 4.00194 6.43618 4.38756 5.45167 5.10315C4.46716 5.81873 3.72678 6.82863 3.33368 7.99214C1.4575 8.27236 0 9.92148 0 11.9046C0 14.0883 1.75106 15.8681 3.90706 15.8681H13.904C15.7052 15.8681 17.173 14.3839 17.173 12.5566C17.1726 11.7991 16.9175 11.0646 16.45 10.4747C15.9824 9.88484 15.3306 9.47514 14.6025 9.31354L14.6018 9.31005ZM13.9033 14.3867H3.90637C2.56369 14.3867 1.46094 13.277 1.46094 11.9081C1.46157 11.5824 1.52533 11.26 1.64858 10.9594C1.77184 10.6587 1.95217 10.3857 2.17926 10.1559C2.40636 9.92615 2.67578 9.7441 2.97212 9.62018C3.26847 9.49626 3.58593 9.43291 3.90637 9.43373C4.55812 9.43373 5.17412 9.69927 5.63543 10.1612C5.70293 10.2304 5.78325 10.2853 5.87175 10.3228C5.96025 10.3603 6.05518 10.3796 6.15106 10.3796C6.24694 10.3796 6.34187 10.3603 6.43037 10.3228C6.51887 10.2853 6.59918 10.2304 6.66668 10.1612C6.94237 9.88165 6.94237 9.40438 6.66668 9.11299C6.16876 8.60958 5.54689 8.25142 4.86612 8.076C5.21024 7.30573 5.76532 6.65249 6.46501 6.19436C7.16469 5.73623 7.97938 5.4926 8.81168 5.4926C11.2042 5.4926 13.1587 7.47644 13.1587 9.90681C13.1587 10.3841 13.0872 10.846 12.9367 11.2897C12.815 11.6831 13.0192 12.101 13.4062 12.2435C13.4762 12.2689 13.5499 12.2823 13.6242 12.2834C13.9287 12.2834 14.2154 12.087 14.3117 11.7809C14.4078 11.4896 14.4776 11.19 14.52 10.8858C14.9118 11.0412 15.238 11.3307 15.4424 11.7043C15.6468 12.0779 15.7166 12.5123 15.6398 12.9326C15.563 13.3529 15.3444 13.7328 15.0217 14.0069C14.6989 14.281 14.2923 14.4321 13.8717 14.4342L13.9033 14.3867Z" fill="#649AA6"/>
</svg>
