<svg width="22" height="22" viewBox="0 0 22 22" fill="none" xmlns="http://www.w3.org/2000/svg">
<path d="M2.12877 10.7V15.1C2.12877 15.3917 2.01663 15.6715 1.81702 15.8778C1.61741 16.0841 1.34668 16.2 1.06438 16.2C0.782092 16.2 0.511362 16.0841 0.311751 15.8778C0.11214 15.6715 0 15.3917 0 15.1V10.7C0 10.4083 0.11214 10.1285 0.311751 9.92218C0.511362 9.71589 0.782092 9.6 1.06438 9.6C1.34668 9.6 1.61741 9.71589 1.81702 9.92218C2.01663 10.1285 2.12877 10.4083 2.12877 10.7ZM4.61233 7.4C4.33004 7.4 4.05931 7.51589 3.8597 7.72218C3.66009 7.92847 3.54795 8.20826 3.54795 8.5V17.3C3.54795 17.5917 3.66009 17.8715 3.8597 18.0778C4.05931 18.2841 4.33004 18.4 4.61233 18.4C4.89462 18.4 5.16535 18.2841 5.36496 18.0778C5.56457 17.8715 5.67671 17.5917 5.67671 17.3V8.5C5.67671 8.20826 5.56457 7.92847 5.36496 7.72218C5.16535 7.51589 4.89462 7.4 4.61233 7.4ZM8.16028 3.73333C7.87798 3.73333 7.60725 3.84923 7.40764 4.05552C7.20803 4.26181 7.09589 4.5416 7.09589 4.83333V17.3C7.09589 17.5917 7.20803 17.8715 7.40764 18.0778C7.60725 18.2841 7.87798 18.4 8.16028 18.4C8.44257 18.4 8.7133 18.2841 8.91291 18.0778C9.11252 17.8715 9.22466 17.5917 9.22466 17.3V4.83333C9.22466 4.5416 9.11252 4.26181 8.91291 4.05552C8.7133 3.84923 8.44257 3.73333 8.16028 3.73333ZM19.0117 9.17192C18.6704 7.43019 17.7567 5.86406 16.4256 4.73914C15.0944 3.61422 13.4278 2.99977 11.7082 3C11.4259 3 11.1552 3.11589 10.9556 3.32218C10.756 3.52847 10.6438 3.80826 10.6438 4.1C10.6438 4.39174 10.756 4.67153 10.9556 4.87782C11.1552 5.08411 11.4259 5.2 11.7082 5.2C13.0278 5.19528 14.3017 5.69926 15.281 6.61345C16.2602 7.52765 16.8744 8.78635 17.0035 10.1436C17.0265 10.379 17.1222 10.6004 17.2765 10.7751C17.4309 10.9498 17.6356 11.0685 17.8604 11.1134C18.4671 11.2347 19.0082 11.5855 19.3781 12.0971C19.748 12.6087 19.92 13.2444 19.8606 13.8801C19.8012 14.5158 19.5146 15.1057 19.0568 15.5347C18.599 15.9637 18.0029 16.2009 17.3849 16.2H11.7082C11.4259 16.2 11.1552 16.3159 10.9556 16.5222C10.756 16.7285 10.6438 17.0083 10.6438 17.3C10.6438 17.5917 10.756 17.8715 10.9556 18.0778C11.1552 18.2841 11.4259 18.4 11.7082 18.4H17.3849C18.4653 18.4007 19.5116 18.0094 20.3413 17.2944C21.1711 16.5794 21.7317 15.5861 21.9253 14.4877C21.9751 14.2051 21.9998 13.9203 22 13.6365C22 13.6344 22 13.6324 22 13.6303C21.9995 12.8127 21.7954 12.0038 21.4009 11.284C20.8684 10.3125 20.0228 9.56504 19.0117 9.17192Z" fill="#649AA6"/>
<path fill-rule="evenodd" clip-rule="evenodd" d="M22 13.6365V13.6303C21.9995 12.8127 21.7954 12.0038 21.4009 11.284C20.8684 10.3125 20.0228 9.56504 19.0117 9.17192C18.6704 7.43019 17.7567 5.86406 16.4256 4.73914C15.0944 3.61422 13.4278 2.99977 11.7082 3C11.4259 3 11.1552 3.11589 10.9556 3.32218C10.756 3.52847 10.6438 3.80826 10.6438 4.1C10.6438 4.39174 10.756 4.67153 10.9556 4.87782C11.1552 5.08411 11.4259 5.2 11.7082 5.2C13.0278 5.19528 14.3017 5.69926 15.281 6.61345C16.2602 7.52765 16.8744 8.78635 17.0035 10.1436C17.0265 10.379 17.1222 10.6004 17.2765 10.7751C17.4309 10.9498 17.6356 11.0685 17.8604 11.1134C18.4671 11.2347 19.0082 11.5855 19.3781 12.0971C19.748 12.6087 19.92 13.2444 19.8606 13.8801C19.8012 14.5158 19.5146 15.1057 19.0568 15.5347C18.599 15.9637 18.0029 16.2009 17.3849 16.2H11.7082C11.4259 16.2 11.1552 16.3159 10.9556 16.5222C10.756 16.7285 10.6438 17.0083 10.6438 17.3C10.6438 17.5917 10.756 17.8715 10.9556 18.0778C11.1552 18.2841 11.4259 18.4 11.7082 18.4H17.3849C18.4653 18.4007 19.5116 18.0094 20.3413 17.2944C21.1711 16.5794 21.7317 15.5861 21.9253 14.4877C21.9751 14.2051 21.9998 13.9203 22 13.6365ZM0 15.1V10.7C0 10.4083 0.11214 10.1285 0.311751 9.92218C0.511362 9.71589 0.782092 9.6 1.06438 9.6C1.34668 9.6 1.61741 9.71589 1.81702 9.92218C2.01663 10.1285 2.12877 10.4083 2.12877 10.7V15.1C2.12877 15.3917 2.01663 15.6715 1.81702 15.8778C1.61741 16.0841 1.34668 16.2 1.06438 16.2C0.782092 16.2 0.511362 16.0841 0.311751 15.8778C0.11214 15.6715 0 15.3917 0 15.1ZM4.61233 7.4C4.33004 7.4 4.05931 7.51589 3.8597 7.72218C3.66009 7.92847 3.54795 8.20826 3.54795 8.5V17.3C3.54795 17.5917 3.66009 17.8715 3.8597 18.0778C4.05931 18.2841 4.33004 18.4 4.61233 18.4C4.89462 18.4 5.16535 18.2841 5.36496 18.0778C5.56457 17.8715 5.67671 17.5917 5.67671 17.3V8.5C5.67671 8.20826 5.56457 7.92847 5.36496 7.72218C5.16535 7.51589 4.89462 7.4 4.61233 7.4ZM8.16028 3.73333C7.87798 3.73333 7.60725 3.84923 7.40764 4.05552C7.20803 4.26181 7.09589 4.5416 7.09589 4.83333V17.3C7.09589 17.5917 7.20803 17.8715 7.40764 18.0778C7.60725 18.2841 7.87798 18.4 8.16028 18.4C8.44257 18.4 8.7133 18.2841 8.91291 18.0778C9.11252 17.8715 9.22466 17.5917 9.22466 17.3V4.83333C9.22466 4.5416 9.11252 4.26181 8.91291 4.05552C8.7133 3.84923 8.44257 3.73333 8.16028 3.73333Z" fill="#649AA6"/>
</svg>
