<svg width="22" height="22" viewBox="0 0 22 22" fill="none" xmlns="http://www.w3.org/2000/svg">
<path d="M11 0C4.92534 0 0 4.92534 0 11C0 17.0747 4.92534 22 11 22C17.0747 22 22 17.0747 22 11C22 4.92534 17.0747 0 11 0ZM15.7866 17.2651C15.6468 17.6273 15.3958 17.8288 15.1371 17.8288C14.996 17.8257 14.8611 17.7704 14.7584 17.6735C12.7812 15.9253 10.498 15.6446 8.93035 15.7162C7.19316 15.7965 5.91944 16.3151 5.90622 16.3206C5.50661 16.4857 5.09157 16.129 4.98259 15.5235C4.8725 14.918 5.10809 14.2916 5.50771 14.1254C5.56495 14.1012 6.93555 13.5375 8.84227 13.4429C9.92479 13.3826 11.0098 13.5016 12.0535 13.7951C13.3368 14.1648 14.5204 14.8184 15.5169 15.7074C15.8758 16.0255 15.9969 16.7224 15.7866 17.2651ZM17.1847 13.8931C17.0196 14.2553 16.7224 14.4568 16.4152 14.4568C16.253 14.4552 16.0956 14.4007 15.9672 14.3015C13.6256 12.5533 10.9207 12.2726 9.06355 12.3442C7.0049 12.4245 5.4967 12.9431 5.48239 12.9486C5.00791 13.1137 4.51801 12.757 4.38701 12.1515C4.25711 11.546 4.53563 10.9196 5.01011 10.7534C5.07726 10.7292 6.70106 10.1655 8.95897 10.0709C10.2888 10.0147 11.5681 10.1336 12.7636 10.4231C14.2465 10.7756 15.6422 11.4262 16.8655 12.3354C17.2904 12.6524 17.4335 13.3504 17.1847 13.8931ZM18.0456 10.5949C17.8513 10.5945 17.6608 10.5404 17.4952 10.4386C11.928 7.05004 4.70737 9.06465 4.63471 9.08447C4.05344 9.2529 3.45126 8.89732 3.29163 8.29073C3.1309 7.68415 3.47328 7.05775 4.05454 6.89041C4.13821 6.86619 6.1297 6.30254 8.89842 6.20787C10.4627 6.14677 12.0288 6.26497 13.5662 6.56015C15.4222 6.92674 17.1143 7.56966 18.5972 8.47348C19.119 8.79053 19.294 9.48739 18.9902 10.0301C18.8975 10.2 18.761 10.3419 18.5949 10.4412C18.4288 10.5405 18.2391 10.5936 18.0456 10.5949Z" fill="#649AA6"/>
</svg>
