<svg width="22" height="22" viewBox="0 0 22 22" fill="none" xmlns="http://www.w3.org/2000/svg">
<path d="M11.011 4.4L7.34067 8.07033L3.67033 4.4L0 8.07033L3.67033 11.7407L7.34067 8.07033L11.011 11.7407L7.34067 15.411L11.011 19.0813L14.6813 15.411L11.011 11.7407L14.6813 8.07033L11.011 4.4ZM14.7052 8.07033L18.3526 4.42292L22 8.07033L18.3526 11.7177L14.7052 8.07033Z" fill="#649AA6"/>
<path fill-rule="evenodd" clip-rule="evenodd" d="M11.011 4.4L7.34067 8.07033L3.67033 4.4L0 8.07033L3.67033 11.7407L7.34067 8.07033L11.011 11.7407L7.34067 15.411L11.011 19.0813L14.6813 15.411L11.011 11.7407L14.6813 8.07033L11.011 4.4ZM22 8.07033L18.3526 4.42292L14.7052 8.07033L18.3526 11.7177L22 8.07033Z" fill="#649AA6"/>
</svg>
