<svg width="22" height="22" viewBox="0 0 22 22" fill="none" xmlns="http://www.w3.org/2000/svg">
<path d="M8.72892 13.5356L14.6706 10.48L8.72892 7.38778V13.5356ZM11 3C12.3749 3 13.7028 3.01833 14.9836 3.055C16.2644 3.09167 17.2035 3.13037 17.801 3.17111L18.6971 3.22C18.7053 3.22 18.7749 3.22611 18.9058 3.23833C19.0368 3.25056 19.1309 3.26278 19.1882 3.275C19.2454 3.28722 19.3416 3.30556 19.4766 3.33C19.6117 3.35444 19.7283 3.38704 19.8265 3.42778C19.9247 3.46852 20.0393 3.52148 20.1702 3.58667C20.3012 3.65185 20.428 3.7313 20.5508 3.825C20.6736 3.9187 20.7922 4.02667 20.9068 4.14889C20.9559 4.19778 21.0193 4.27315 21.0971 4.375C21.1748 4.47685 21.2935 4.71519 21.4531 5.09C21.6127 5.46481 21.7211 5.8763 21.7784 6.32444C21.8439 6.84593 21.895 7.40204 21.9319 7.99278C21.9687 8.58352 21.9912 9.04593 21.9994 9.38V11.5311C22.0076 12.7126 21.9339 13.8941 21.7784 15.0756C21.7211 15.5237 21.6188 15.9291 21.4715 16.2917C21.3242 16.6543 21.1933 16.9048 21.0787 17.0433L20.9068 17.2511C20.7922 17.3733 20.6736 17.4813 20.5508 17.575C20.428 17.6687 20.3012 17.7461 20.1702 17.8072C20.0393 17.8683 19.9247 17.9193 19.8265 17.96C19.7283 18.0007 19.6117 18.0333 19.4766 18.0578C19.3416 18.0822 19.2434 18.1006 19.182 18.1128C19.1206 18.125 19.0265 18.1372 18.8997 18.1494C18.7728 18.1617 18.7053 18.1678 18.6971 18.1678C16.6429 18.3226 14.0772 18.4 11 18.4C9.3059 18.3837 7.83481 18.3572 6.58674 18.3206C5.33867 18.2839 4.51822 18.2533 4.12538 18.2289L3.52385 18.18L3.08192 18.1311C2.78729 18.0904 2.56427 18.0496 2.41287 18.0089C2.26146 17.9681 2.05277 17.8826 1.78679 17.7522C1.5208 17.6219 1.2896 17.4548 1.09319 17.2511C1.04408 17.2022 0.980656 17.1269 0.902907 17.025C0.825159 16.9231 0.70649 16.6848 0.5469 16.31C0.387311 15.9352 0.278872 15.5237 0.221584 15.0756C0.156111 14.5541 0.104961 13.998 0.0681324 13.4072C0.0313041 12.8165 0.00879787 12.3541 0.000613805 12.02V9.86889C-0.00757026 8.68741 0.0660863 7.50593 0.221584 6.32444C0.278872 5.8763 0.381173 5.47093 0.528486 5.10833C0.675799 4.74574 0.806744 4.49519 0.921321 4.35667L1.09319 4.14889C1.20776 4.02667 1.32643 3.9187 1.44919 3.825C1.57195 3.7313 1.69881 3.65185 1.82975 3.58667C1.9607 3.52148 2.07527 3.46852 2.17348 3.42778C2.27169 3.38704 2.38832 3.35444 2.52335 3.33C2.65839 3.30556 2.75455 3.28722 2.81184 3.275C2.86913 3.26278 2.96325 3.25056 3.09419 3.23833C3.22514 3.22611 3.2947 3.22 3.30288 3.22C5.35709 3.07333 7.92279 3 11 3Z" fill="#649AA6"/>
</svg>
