<svg width="22" height="22" viewBox="0 0 22 22" fill="none" xmlns="http://www.w3.org/2000/svg">
<path d="M3.69516 3C2.75868 3 2 3.74665 2 4.66663V17.3264C2 18.2464 2.76004 18.993 3.69516 18.993H4.37376C5.31024 18.993 6.06892 18.2464 6.06892 17.3264V4.6653C6.06892 3.74532 5.30888 3 4.37241 3H3.69516ZM9.11993 3C8.18346 3 7.42342 3.74665 7.42342 4.66663V17.3264C7.42342 18.2464 8.18346 18.993 9.11993 18.993H9.79854C10.248 18.9923 10.6788 18.8164 10.9964 18.5039C11.314 18.1915 11.4923 17.7679 11.4923 17.3264V4.6653C11.492 4.22374 11.3133 3.80037 10.9954 3.48815C10.6776 3.17592 10.2467 3.00035 9.79718 3H9.11993ZM16.8913 6.70259C16.7286 6.30513 16.4163 5.98456 16.0192 5.80752C15.6221 5.63047 15.1708 5.61057 14.7591 5.75195L13.9692 6.02394C13.7531 6.09849 13.5546 6.21526 13.3856 6.36722C13.2167 6.51919 13.0808 6.70319 12.9862 6.90815C12.8915 7.1131 12.8402 7.33475 12.8351 7.55973C12.8301 7.78472 12.8714 8.00838 12.9568 8.21723L16.9429 17.9557C17.2808 18.7824 18.2187 19.1997 19.0751 18.9064L19.865 18.6344C20.0813 18.5598 20.28 18.443 20.449 18.291C20.6181 18.1389 20.7541 17.9548 20.8487 17.7496C20.9433 17.5445 20.9947 17.3227 20.9996 17.0976C21.0045 16.8724 20.963 16.6487 20.8775 16.4397L16.8913 6.70259Z" fill="#99ECFF"/>
</svg>
