<svg width="22" height="22" viewBox="0 0 22 22" fill="none" xmlns="http://www.w3.org/2000/svg">
<path d="M20.6935 18.9925L16.1596 14.4586C17.2511 13.0054 17.8404 11.2367 17.8384 9.4192C17.8384 4.77688 14.0615 1 9.4192 1C4.77688 1 1 4.77688 1 9.4192C1 14.0615 4.77688 17.8384 9.4192 17.8384C11.2367 17.8404 13.0054 17.2511 14.4586 16.1596L18.9925 20.6935C19.222 20.8986 19.5213 21.0081 19.829 20.9995C20.1367 20.9909 20.4295 20.8648 20.6472 20.6472C20.8648 20.4295 20.9909 20.1367 20.9995 19.829C21.0081 19.5213 20.8986 19.222 20.6935 18.9925ZM3.40549 9.4192C3.40549 8.2298 3.75818 7.06711 4.41898 6.07816C5.07977 5.08921 6.01899 4.31842 7.11785 3.86325C8.21671 3.40809 9.42587 3.289 10.5924 3.52104C11.759 3.75308 12.8305 4.32583 13.6715 5.16686C14.5126 6.00789 15.0853 7.07944 15.3174 8.24598C15.5494 9.41253 15.4303 10.6217 14.9751 11.7205C14.52 12.8194 13.7492 13.7586 12.7602 14.4194C11.7713 15.0802 10.6086 15.4329 9.4192 15.4329C7.82485 15.431 6.29635 14.7968 5.16897 13.6694C4.0416 12.5421 3.4074 11.0135 3.40549 9.4192Z" fill="#99ECFF"/>
<path d="M20.6935 18.9925L16.1596 14.4586C17.2511 13.0054 17.8404 11.2367 17.8384 9.4192C17.8384 4.77688 14.0615 1 9.4192 1C4.77688 1 1 4.77688 1 9.4192C1 14.0615 4.77688 17.8384 9.4192 17.8384C11.2367 17.8404 13.0054 17.2511 14.4586 16.1596L18.9925 20.6935C19.222 20.8986 19.5213 21.0081 19.829 20.9995C20.1367 20.9909 20.4295 20.8648 20.6472 20.6472C20.8648 20.4295 20.9909 20.1367 20.9995 19.829C21.0081 19.5213 20.8986 19.222 20.6935 18.9925ZM3.40549 9.4192C3.40549 8.2298 3.75818 7.06711 4.41898 6.07816C5.07977 5.08921 6.01899 4.31842 7.11785 3.86325C8.21671 3.40809 9.42587 3.289 10.5924 3.52104C11.759 3.75308 12.8305 4.32583 13.6715 5.16686C14.5126 6.00789 15.0853 7.07944 15.3174 8.24598C15.5494 9.41253 15.4303 10.6217 14.9751 11.7205C14.52 12.8194 13.7492 13.7586 12.7602 14.4194C11.7713 15.0802 10.6086 15.4329 9.4192 15.4329C7.82485 15.431 6.29635 14.7968 5.16897 13.6694C4.0416 12.5421 3.4074 11.0135 3.40549 9.4192Z" fill="black" fill-opacity="0.35"/>
</svg>
