<svg width="22" height="22" viewBox="0 0 22 22" fill="none" xmlns="http://www.w3.org/2000/svg">
<path d="M7.99005 22L7.55224 18.48C7.31509 18.3883 7.09144 18.2783 6.8813 18.15C6.67115 18.0217 6.4661 17.8842 6.26617 17.7375L3.00995 19.1125L0 13.8875L2.81841 11.7425C2.80017 11.6142 2.79105 11.4902 2.79105 11.3707V10.6293C2.79105 10.5098 2.80017 10.3858 2.81841 10.2575L0 8.1125L3.00995 2.8875L6.26617 4.2625C6.46683 4.11583 6.67662 3.97833 6.89552 3.85C7.11443 3.72167 7.33333 3.61167 7.55224 3.52L7.99005 0H14.01L14.4478 3.52C14.6849 3.61167 14.9086 3.72167 15.1187 3.85C15.3289 3.97833 15.5339 4.11583 15.7338 4.2625L18.9901 2.8875L22 8.1125L19.1816 10.2575C19.1998 10.3858 19.209 10.5098 19.209 10.6293V11.3707C19.209 11.4902 19.1907 11.6142 19.1542 11.7425L21.9726 13.8875L18.9627 19.1125L15.7338 17.7375C15.5332 17.8842 15.3234 18.0217 15.1045 18.15C14.8856 18.2783 14.6667 18.3883 14.4478 18.48L14.01 22H7.99005ZM11.0547 14.85C12.1128 14.85 13.0158 14.4742 13.7637 13.7225C14.5116 12.9708 14.8856 12.0633 14.8856 11C14.8856 9.93667 14.5116 9.02917 13.7637 8.2775C13.0158 7.52583 12.1128 7.15 11.0547 7.15C9.97844 7.15 9.07071 7.52583 8.33154 8.2775C7.59237 9.02917 7.22315 9.93667 7.22388 11C7.22388 12.0633 7.5931 12.9708 8.33154 13.7225C9.06998 14.4742 9.97771 14.85 11.0547 14.85Z" fill="#99ECFF"/>
<path d="M7.99005 22L7.55224 18.48C7.31509 18.3883 7.09144 18.2783 6.8813 18.15C6.67115 18.0217 6.4661 17.8842 6.26617 17.7375L3.00995 19.1125L0 13.8875L2.81841 11.7425C2.80017 11.6142 2.79105 11.4902 2.79105 11.3707V10.6293C2.79105 10.5098 2.80017 10.3858 2.81841 10.2575L0 8.1125L3.00995 2.8875L6.26617 4.2625C6.46683 4.11583 6.67662 3.97833 6.89552 3.85C7.11443 3.72167 7.33333 3.61167 7.55224 3.52L7.99005 0H14.01L14.4478 3.52C14.6849 3.61167 14.9086 3.72167 15.1187 3.85C15.3289 3.97833 15.5339 4.11583 15.7338 4.2625L18.9901 2.8875L22 8.1125L19.1816 10.2575C19.1998 10.3858 19.209 10.5098 19.209 10.6293V11.3707C19.209 11.4902 19.1907 11.6142 19.1542 11.7425L21.9726 13.8875L18.9627 19.1125L15.7338 17.7375C15.5332 17.8842 15.3234 18.0217 15.1045 18.15C14.8856 18.2783 14.6667 18.3883 14.4478 18.48L14.01 22H7.99005ZM11.0547 14.85C12.1128 14.85 13.0158 14.4742 13.7637 13.7225C14.5116 12.9708 14.8856 12.0633 14.8856 11C14.8856 9.93667 14.5116 9.02917 13.7637 8.2775C13.0158 7.52583 12.1128 7.15 11.0547 7.15C9.97844 7.15 9.07071 7.52583 8.33154 8.2775C7.59237 9.02917 7.22315 9.93667 7.22388 11C7.22388 12.0633 7.5931 12.9708 8.33154 13.7225C9.06998 14.4742 9.97771 14.85 11.0547 14.85Z" fill="black" fill-opacity="0.35"/>
</svg>
