<svg width="122" height="30" viewBox="0 0 122 30" fill="none" xmlns="http://www.w3.org/2000/svg">
<path d="M106.868 30C115.225 30 122 23.2843 122 15C122 6.71573 115.225 0 106.868 0C98.5112 0 91.7364 6.71573 91.7364 15C91.7364 23.2843 98.5112 30 106.868 30Z" fill="#2FC8C3"/>
<path d="M15.1318 30C23.4888 30 30.2636 23.2843 30.2636 15C30.2636 6.71573 23.4888 0 15.1318 0C6.77473 0 0 6.71573 0 15C0 23.2843 6.77473 30 15.1318 30Z" fill="#2FC8C3"/>
<path d="M61.4729 30C69.8299 30 76.6046 23.2843 76.6046 15C76.6046 6.71573 69.8299 0 61.4729 0C53.1158 0 46.3411 6.71573 46.3411 15C46.3411 23.2843 53.1158 30 61.4729 30Z" fill="#2FC8C3"/>
</svg>
