<svg width="101" height="103" viewBox="0 0 101 103" fill="currentColor" xmlns="http://www.w3.org/2000/svg">
<path d="M4.83853 0H35.4826C38.153 0 40.3211 2.20859 40.3211 4.9289V97.7565C40.3211 100.477 38.153 102.685 35.4826 102.685H4.83853C2.1681 102.685 0 100.477 0 97.7565V4.9289C0 2.20859 2.1681 0 4.83853 0ZM65.3202 0H95.9642C98.6346 0 100.803 2.20859 100.803 4.9289V97.7565C100.803 100.477 98.6346 102.685 95.9642 102.685H65.3202C62.6497 102.685 60.4816 100.477 60.4816 97.7565V4.9289C60.4816 2.20859 62.6497 0 65.3202 0Z" fill="currentColor"/>
</svg>
