<?xml version="1.0" standalone="no"?>
<!DOCTYPE svg PUBLIC "-//W3C//DTD SVG 20010904//EN"
 "http://www.w3.org/TR/2001/REC-SVG-20010904/DTD/svg10.dtd">
<svg version="1.0" xmlns="http://www.w3.org/2000/svg"
 width="700.000000pt" height="700.000000pt" viewBox="0 0 700.000000 700.000000"
 preserveAspectRatio="xMidYMid meet">
<metadata>
Created by potrace 1.11, written by Peter Selinger 2001-2013
</metadata>
<g transform="translate(0.000000,700.000000) scale(0.100000,-0.100000)"
fill="#000000" stroke="none">
<path d="M2400 6547 c-14 -12 -79 -69 -145 -127 -66 -58 -127 -112 -135 -120
-8 -8 -33 -30 -55 -49 -22 -19 -61 -54 -88 -78 l-47 -44 107 -157 c58 -86 108
-159 110 -161 6 -8 15 8 38 75 13 38 73 206 134 374 60 167 109 305 108 307
-2 1 -14 -8 -27 -20z"/>
<path d="M3245 6431 c-3 -6 -3 -23 -1 -38 3 -15 10 -82 16 -148 6 -66 13 -131
15 -145 2 -14 7 -59 11 -100 3 -41 7 -86 9 -100 1 -14 8 -79 14 -145 7 -66 14
-127 16 -135 3 -8 5 -36 6 -62 l2 -48 66 0 c36 -1 165 -1 285 -1 l219 0 104
273 104 273 -15 55 c-8 30 -20 75 -27 100 -7 25 -13 47 -15 49 -2 2 -47 -18
-101 -44 -54 -26 -163 -79 -243 -118 -80 -38 -157 -75 -171 -82 l-26 -14 -127
220 c-70 120 -129 219 -131 219 -2 0 -6 -4 -10 -9z"/>
<path d="M4177 6328 c-37 -19 -39 -21 -32 -56 12 -67 20 -66 48 4 15 37 26 69
24 70 -1 1 -19 -7 -40 -18z"/>
<path d="M2959 6206 c-654 -417 -749 -479 -749 -486 0 -4 8 -18 18 -31 10 -13
57 -80 104 -149 46 -69 117 -172 157 -230 41 -58 82 -120 93 -137 11 -18 23
-33 26 -33 11 0 414 98 417 102 2 2 32 62 67 133 l64 130 47 1 c53 2 53 2 62
-91 9 -97 15 -117 32 -111 8 3 26 9 39 12 25 7 25 -3 5 144 -6 45 -6 45 -49
48 l-42 3 -1 42 c0 23 -2 51 -4 62 -2 11 -7 54 -10 95 -4 41 -8 86 -10 100 -2
14 -7 57 -10 95 -3 39 -8 93 -11 120 -4 28 -7 66 -9 85 -13 150 -19 197 -24
211 -5 13 -46 -9 -212 -115z"/>
<path d="M4322 6293 c-5 -10 -30 -73 -57 -141 -43 -110 -46 -126 -37 -160 9
-33 104 -359 118 -404 7 -24 23 -23 151 8 88 22 122 25 183 20 174 -14 319
-137 364 -307 9 -37 14 -118 15 -254 1 -109 3 -201 6 -203 3 -4 105 63 652
424 240 158 243 161 223 179 l-20 18 23 21 c13 12 41 36 63 55 52 45 184 162
204 181 8 8 84 75 168 148 83 74 152 135 152 137 0 2 -10 2 -22 -1 -32 -6
-127 -22 -163 -28 -63 -9 -195 -32 -270 -46 -27 -5 -66 -12 -85 -14 -19 -3
-46 -8 -60 -10 -56 -10 -217 -37 -250 -42 -19 -3 -57 -9 -85 -14 -27 -5 -66
-12 -85 -15 -19 -3 -49 -8 -66 -11 -31 -6 -39 -2 -644 268 -85 38 -164 73
-175 78 -69 32 -288 130 -291 130 -2 0 -7 -8 -12 -17z"/>
<path d="M1763 5984 c-59 -53 -141 -127 -182 -163 -41 -36 -82 -73 -91 -81 -8
-8 -42 -37 -74 -65 l-58 -49 44 -41 c24 -22 62 -55 84 -72 22 -18 56 -46 75
-62 19 -16 111 -93 204 -171 94 -78 179 -149 190 -158 250 -210 327 -273 330
-270 1 1 15 28 30 58 43 87 87 133 164 174 l71 37 -50 72 c-27 40 -63 92 -81
116 -17 24 -61 87 -97 140 -68 99 -162 233 -168 240 -2 2 -10 -2 -19 -9 -21
-17 -28 -8 -16 23 8 21 6 32 -12 57 -12 17 -67 96 -122 175 -55 79 -103 144
-107 145 -3 0 -55 -43 -115 -96z"/>
<path d="M4151 5860 c-6 -14 -40 -97 -75 -185 l-63 -160 -51 -3 c-41 -2 -53
-8 -67 -28 -9 -14 -15 -28 -12 -30 10 -10 103 20 117 37 13 16 30 18 148 16
114 -2 132 0 128 13 -2 8 -27 87 -54 175 -64 210 -57 195 -71 165z"/>
<path d="M1269 5546 c-19 -17 -70 -63 -113 -101 -44 -39 -87 -77 -96 -85 -9
-8 -45 -40 -81 -71 -35 -31 -75 -67 -89 -80 -14 -13 -41 -37 -59 -52 -19 -15
-32 -29 -30 -31 2 -2 161 -53 354 -114 l350 -110 -145 -45 c-539 -170 -799
-250 -825 -256 l-30 -7 40 -26 c243 -156 305 -186 440 -212 11 -3 97 -23 190
-46 94 -22 235 -56 315 -75 80 -19 266 -64 414 -100 148 -36 273 -65 277 -65
5 0 26 26 47 58 l37 57 1 288 1 288 -55 47 c-30 26 -78 67 -106 91 -62 53 -78
66 -191 161 -50 41 -92 77 -95 80 -3 3 -61 53 -130 110 -69 58 -127 107 -130
110 -3 3 -62 53 -131 112 l-126 106 -34 -32z"/>
<path d="M5760 5281 c-113 -76 -315 -212 -450 -303 l-245 -165 0 -348 0 -348
265 -68 c146 -38 270 -68 275 -69 11 0 44 30 283 257 85 82 163 155 172 163
17 15 256 242 424 402 l91 86 -35 32 c-19 17 -64 57 -100 88 -92 81 -252 223
-342 304 -78 71 -124 108 -130 108 -1 0 -95 -63 -208 -139z"/>
<path d="M4225 4522 c-11 -2 -67 -15 -125 -29 -58 -14 -109 -26 -115 -27 -5
-2 -21 -6 -35 -9 -14 -4 -92 -23 -175 -42 -236 -56 -219 -50 -234 -92 -7 -21
-19 -51 -26 -68 -7 -16 -20 -48 -28 -70 l-14 -39 -6 29 c-3 17 -9 59 -13 94
l-6 63 -30 -6 c-17 -3 -34 -6 -39 -6 -4 0 -6 -8 -5 -17 4 -20 12 -92 22 -198
6 -62 9 -87 14 -105 0 -3 14 27 30 65 16 39 30 68 30 65 1 -3 3 -18 5 -35 3
-29 8 -70 21 -165 4 -25 8 -56 9 -70 2 -14 3 -28 4 -32 1 -4 88 51 194 121
105 70 317 209 470 310 152 101 277 187 277 191 0 11 -72 56 -105 65 -33 9
-89 12 -120 7z"/>
<path d="M4425 4385 c-28 -19 -226 -152 -441 -297 -493 -332 -449 -300 -433
-326 11 -17 50 -30 209 -68 107 -25 277 -66 377 -91 l183 -44 97 29 98 29 2
345 c2 338 -2 398 -31 440 -11 15 -16 13 -61 -17z"/>
<path d="M789 4232 c-93 -99 -271 -292 -291 -315 -19 -21 -15 -34 13 -55 10
-6 97 -76 195 -155 97 -78 198 -158 223 -178 205 -158 526 -423 525 -434 -1
-10 247 -66 496 -111 14 -3 66 -13 115 -23 l90 -18 55 30 c30 17 60 34 67 39
8 6 -11 56 -68 174 -43 90 -79 169 -79 174 0 5 31 76 69 157 l69 148 -2 145
-1 145 -230 57 c-126 32 -239 60 -250 62 -11 2 -65 15 -120 30 -165 42 -794
196 -804 196 -4 0 -37 -31 -72 -68z"/>
<path d="M3153 4257 c4 -12 144 -214 205 -296 l25 -34 12 24 c10 17 10 26 1
34 -6 6 -51 73 -101 148 -81 122 -93 137 -119 137 -19 0 -27 -4 -23 -13z"/>
<path d="M5060 3887 l0 -115 -72 -20 c-40 -11 -143 -40 -228 -65 -85 -25 -174
-50 -197 -56 -38 -10 -43 -15 -43 -41 0 -26 -5 -31 -42 -41 l-43 -12 40 -12
c38 -11 40 -14 43 -54 5 -70 3 -72 -77 -51 -69 18 -71 18 -71 -1 0 -11 7 -19
18 -20 9 0 26 -2 37 -4 71 -13 94 -14 97 -6 2 6 123 -20 271 -56 l268 -65 -1
-311 c-1 -343 -9 -414 -61 -547 -16 -41 -48 -104 -71 -140 -43 -67 -181 -210
-202 -210 -6 0 -47 52 -91 116 -44 64 -113 163 -152 221 -40 57 -73 108 -73
113 0 4 -4 10 -8 12 -4 2 -18 18 -31 36 l-23 33 7 282 c3 155 8 337 10 405 3
75 1 122 -5 123 -6 1 -19 1 -30 1 -11 0 -33 0 -50 -1 l-30 -1 -2 -329 -3 -329
-176 256 c-134 195 -174 260 -165 269 6 7 45 30 86 51 66 34 135 57 233 77 23
5 27 10 27 39 0 45 -20 49 -107 24 -37 -11 -72 -21 -78 -22 -5 -1 -30 -8 -55
-15 -25 -8 -49 -14 -55 -16 -55 -12 -122 -33 -133 -41 -2 -1 12 -24 31 -51 27
-37 32 -52 24 -64 -10 -16 0 -31 326 -501 46 -65 43 -17 32 -509 l-6 -297 48
-4 c26 -3 50 -3 52 -2 2 2 5 72 7 156 3 84 6 207 8 273 2 66 5 133 5 149 1 25
15 9 104 -120 57 -82 133 -192 170 -245 37 -53 67 -101 67 -107 0 -11 -102
-58 -170 -79 -25 -8 -72 -16 -105 -19 -84 -8 -85 -8 -85 -54 0 -35 3 -41 18
-36 9 3 98 23 197 46 99 23 188 44 198 46 15 5 14 10 -13 49 -32 47 -35 55
-20 55 5 0 23 -20 40 -45 17 -25 37 -45 45 -45 8 0 173 42 367 94 194 52 389
104 433 116 44 12 88 23 97 25 9 2 61 16 115 30 101 28 223 60 516 136 145 38
165 46 150 57 -10 7 -96 61 -191 119 -95 58 -172 109 -170 113 3 8 115 133
200 224 32 34 58 63 58 66 0 3 -60 21 -132 38 -73 18 -140 35 -148 37 -57 14
-278 67 -290 70 -8 2 -44 11 -80 20 -36 9 -74 19 -85 21 -11 2 -144 35 -295
72 l-275 68 -3 60 -3 60 -242 58 c-133 33 -254 61 -269 64 -42 7 -39 47 5 61
38 12 284 80 412 114 88 23 90 24 95 57 l5 34 185 54 c102 29 199 57 215 61
l30 8 -35 8 c-19 5 -39 10 -45 11 -5 1 -68 17 -140 34 -71 18 -137 33 -145 35
-8 2 -27 6 -42 10 l-28 7 0 -115z"/>
<path d="M2805 3875 c1 -24 4 -47 7 -50 3 -3 32 -12 64 -20 228 -56 273 -66
305 -71 34 -5 36 -4 48 36 7 23 11 44 9 46 -5 4 -411 104 -424 104 -5 0 -9
-20 -9 -45z"/>
<path d="M3361 3864 c-12 -32 -18 -61 -14 -65 4 -4 25 -11 47 -15 l38 -7 -6
54 c-4 31 -14 62 -25 72 -17 18 -19 16 -40 -39z"/>
<path d="M3260 3839 c-13 -24 -4 -41 10 -19 10 16 13 40 5 40 -2 0 -9 -9 -15
-21z"/>
<path d="M5540 3840 c-14 -5 -119 -34 -235 -65 -115 -31 -218 -58 -228 -61
-16 -5 -17 -20 -15 -167 l3 -162 71 -18 c83 -20 940 -226 967 -232 9 -2 96
-23 193 -47 l175 -42 24 29 c13 17 24 32 24 35 0 3 -84 71 -187 153 -103 81
-200 158 -217 172 -255 207 -523 415 -535 414 -8 0 -26 -4 -40 -9z"/>
<path d="M3181 3658 c-16 -35 -27 -65 -25 -67 9 -10 42 32 53 67 7 20 15 43
17 50 3 6 1 12 -5 12 -6 0 -24 -28 -40 -62z"/>
<path d="M3290 3690 c0 -5 7 -7 15 -4 8 4 15 8 15 10 0 2 -7 4 -15 4 -8 0 -15
-4 -15 -10z"/>
<path d="M3316 3638 c-56 -41 -61 -48 -97 -138 -20 -52 -42 -106 -48 -120 -13
-32 -81 -204 -81 -207 0 -1 10 -3 22 -5 25 -3 14 18 211 -388 79 -162 169
-347 200 -410 l57 -115 -6 70 c-2 39 -7 86 -10 105 -2 19 -7 62 -9 95 -3 33
-8 83 -11 110 -3 28 -7 70 -9 95 -3 25 -7 65 -10 90 -2 25 -7 70 -10 100 -3
30 -7 75 -10 100 -2 25 -7 68 -9 95 -9 83 -18 160 -19 161 -1 0 -80 -22 -175
-49 -130 -37 -176 -47 -185 -38 -7 7 -7 14 -2 20 6 5 90 33 187 62 98 28 176
55 174 58 -2 3 -7 40 -10 81 -12 139 -25 253 -30 257 -1 2 -16 5 -32 8 -23 4
-41 -4 -88 -37z"/>
<path d="M3525 3617 c3 -18 7 -54 9 -82 8 -90 18 -190 20 -192 1 -1 46 11 99
28 l98 30 -23 32 c-36 52 -140 197 -142 197 -1 0 -16 4 -33 9 -32 9 -33 9 -28
-22z"/>
<path d="M3660 3601 c0 -4 15 -28 33 -52 18 -24 45 -63 61 -87 16 -24 32 -44
35 -46 3 -2 76 15 161 39 85 24 148 46 140 49 -17 6 -416 106 -425 106 -3 0
-5 -4 -5 -9z"/>
<path d="M2970 3466 c-137 -92 -165 -115 -164 -134 1 -12 3 -24 5 -27 2 -2 68
40 147 92 114 77 147 104 163 135 11 22 19 41 17 43 -2 1 -77 -48 -168 -109z"/>
<path d="M3127 3509 c-15 -12 -41 -48 -58 -81 -27 -54 -29 -62 -18 -93 15 -41
23 -38 42 18 8 23 26 72 40 110 15 37 25 67 24 67 -1 0 -15 -10 -30 -21z"/>
<path d="M3657 3326 c-59 -17 -106 -34 -103 -37 3 -2 8 -47 11 -99 4 -52 8
-97 10 -100 2 -3 6 -45 10 -95 4 -49 9 -97 11 -105 1 -8 3 -28 4 -45 1 -25 5
-20 21 30 42 127 119 252 207 331 l34 32 -41 61 c-23 33 -45 61 -49 60 -4 -1
-56 -15 -115 -33z"/>
<path d="M3056 3255 c-8 -22 -19 -46 -24 -54 -4 -7 -56 -29 -116 -47 -60 -18
-110 -34 -112 -36 -1 -2 1 -9 5 -16 6 -10 28 -8 101 13 51 14 94 25 95 23 2
-2 -42 -118 -97 -258 -101 -258 -107 -282 -99 -390 1 -12 271 651 271 666 0 3
-16 2 -36 -2 -35 -6 -36 -6 -25 15 7 12 25 24 42 28 39 7 41 13 25 59 l-13 39
-17 -40z"/>
<path d="M1305 2944 c-206 -193 -355 -338 -355 -346 0 -5 4 -6 10 -3 9 6 293
90 335 100 11 3 130 37 265 76 135 39 270 78 300 86 59 16 86 32 57 34 -9 1
-20 2 -24 3 -5 1 -24 5 -43 9 -19 4 -44 9 -55 11 -110 23 -426 86 -428 86 -1
0 -29 -26 -62 -56z"/>
<path d="M1720 2795 c-254 -70 -391 -108 -510 -140 -237 -65 -290 -82 -317
-105 -17 -14 -97 -88 -179 -166 -82 -78 -180 -171 -219 -207 l-70 -67 35 -32
c20 -18 66 -59 102 -91 l66 -58 148 97 c82 54 255 167 384 252 255 168 268
175 251 146 -6 -10 -17 -36 -25 -57 -18 -46 -30 -51 165 80 80 54 243 163 362
243 119 80 216 148 217 152 0 4 -16 6 -36 4 -19 -1 -43 3 -52 10 -9 8 -26 13
-37 13 -11 -1 -139 -34 -285 -74z m295 46 c-8 -7 -481 -320 -583 -384 -29 -19
56 100 117 163 106 109 239 184 371 209 69 13 94 18 100 20 2 0 0 -3 -5 -8z"/>
<path d="M3597 2753 c-8 -66 0 -195 18 -263 9 -36 19 -67 22 -70 5 -5 -3 102
-12 175 -2 17 -7 66 -10 110 -4 44 -8 81 -10 83 -1 2 -5 -14 -8 -35z"/>
<path d="M3644 2372 c4 -7 10 -55 22 -182 2 -30 7 -71 9 -90 2 -19 7 -66 10
-105 4 -38 8 -81 10 -95 2 -14 7 -56 10 -95 3 -38 8 -86 10 -105 7 -62 14
-134 20 -200 3 -36 8 -78 10 -95 3 -16 7 -59 10 -95 3 -36 7 -81 9 -100 3 -19
7 -62 10 -95 13 -134 24 -243 31 -305 3 -25 7 -67 10 -94 3 -28 7 -52 9 -54 3
-2 242 148 531 333 290 184 529 334 532 332 2 -3 -8 -35 -23 -73 -14 -38 -27
-73 -28 -79 -2 -5 -6 -17 -9 -25 -4 -8 -24 -64 -46 -125 -21 -60 -75 -209
-119 -330 -107 -294 -103 -278 -56 -235 21 19 43 40 49 45 17 15 146 128 159
140 6 6 47 41 91 80 44 38 87 76 96 85 9 8 40 36 70 61 30 26 66 57 80 70 83
75 164 145 175 152 8 4 14 12 14 17 0 5 -28 49 -62 97 -33 48 -82 117 -107
153 -24 36 -107 155 -184 264 -76 110 -141 206 -144 214 -8 21 -34 16 -331
-57 -232 -58 -264 -65 -277 -66 -6 0 -9 43 -7 112 l3 112 -28 6 c-219 44 -402
172 -511 358 -24 42 -47 77 -49 77 -2 0 -2 -3 1 -8z"/>
<path d="M2600 2360 c-1 -3 -3 -14 -5 -25 -2 -11 -15 -67 -29 -125 -14 -58
-27 -116 -30 -130 -11 -55 -96 -427 -106 -459 -14 -51 -5 -49 13 1 23 66 49
133 141 377 l85 224 -34 71 c-19 39 -34 69 -35 66z"/>
<path d="M1273 2261 c-45 -31 -193 -130 -328 -221 -135 -91 -245 -167 -245
-171 0 -3 83 -79 185 -170 102 -90 185 -167 185 -171 0 -4 -53 -53 -117 -110
-65 -57 -120 -106 -123 -109 -3 -3 -66 -59 -140 -124 -74 -66 -137 -121 -140
-124 -3 -4 -25 -24 -49 -45 -36 -32 -40 -38 -20 -33 13 3 56 11 94 17 39 6 81
13 95 15 25 5 314 53 360 60 14 2 68 11 120 20 52 9 106 18 120 20 14 2 91 15
172 29 l147 25 288 -129 288 -129 7 27 c4 15 26 106 49 202 22 96 42 182 44
190 12 50 17 80 14 80 -2 0 -35 -6 -72 -14 -87 -18 -232 -14 -317 8 -95 26
-203 81 -273 139 -79 66 -99 87 -152 168 -114 171 -146 360 -100 582 3 15 2
27 -2 26 -5 -1 -45 -27 -90 -58z"/>
<path d="M3572 2113 c-6 -15 -69 -152 -139 -303 -71 -151 -143 -304 -159 -339
-16 -36 -49 -107 -74 -159 l-45 -94 -44 93 c-25 52 -100 208 -168 347 -68 140
-123 257 -123 260 0 4 -7 15 -14 25 -13 16 -16 13 -31 -35 -53 -160 -163 -307
-305 -406 -43 -30 -57 -48 -77 -97 -20 -51 -52 -170 -69 -265 -9 -48 -54 -238
-60 -254 -4 -10 4 -19 28 -29 18 -8 62 -28 98 -45 36 -17 134 -62 218 -101
l153 -70 360 178 359 179 33 -57 c18 -31 75 -129 126 -218 51 -90 97 -163 103
-163 6 0 8 20 4 53 -3 28 -8 76 -11 104 -3 29 -7 74 -10 100 -2 27 -7 73 -10
103 -3 30 -7 73 -10 95 -2 22 -7 72 -10 110 -4 39 -8 81 -10 95 -3 14 -7 59
-10 101 -3 41 -7 84 -9 95 -2 11 -7 60 -11 110 -3 49 -8 96 -10 104 -2 8 -7
49 -10 90 -3 41 -8 91 -10 110 -8 66 -15 135 -21 215 -7 89 -16 110 -32 68z"/>
<path d="M5510 2025 c-52 -14 -216 -54 -365 -90 -148 -36 -276 -68 -283 -70
-9 -3 15 -46 71 -127 395 -575 418 -608 425 -608 4 0 41 30 82 66 41 37 104
92 139 123 35 31 69 61 75 66 6 6 49 44 96 85 47 41 90 80 96 85 170 153 323
287 341 300 9 7 12 14 7 18 -5 3 -83 28 -174 57 -91 28 -208 66 -260 82 -126
41 -139 41 -250 13z"/>
</g>
</svg>
